<?xml version="1.0" encoding="utf-8"?>
<!-- Generator: Adobe Illustrator 15.0.0, SVG Export Plug-In . SVG Version: 6.00 Build 0)  -->
<!DOCTYPE svg PUBLIC "-//W3C//DTD SVG 1.1//EN" "http://www.w3.org/Graphics/SVG/1.1/DTD/svg11.dtd">
<svg version="1.1" id="Capa_1" xmlns="http://www.w3.org/2000/svg" xmlns:xlink="http://www.w3.org/1999/xlink" x="0px" y="0px"
	 width="460px" height="160px" viewBox="0 0 460 160" enable-background="new 0 0 460 160" xml:space="preserve">
<g>
	<path fill="#1761A4" d="M2.78,7.79v3.31c3.1,0,5.62,2.52,5.62,5.62h3.31C11.71,11.8,7.7,7.79,2.78,7.79z"/>
	<path fill="#1761A4" d="M13.89,5.61C10.93,2.64,6.98,1,2.78,1v3.31c6.84,0,12.41,5.57,12.41,12.41h3.31
		C18.5,12.52,16.86,8.57,13.89,5.61z"/>
	<path fill="#1761A4" d="M2.78,14.45c-1.26,0-2.28,1.02-2.28,2.27C0.5,17.98,1.52,19,2.78,19c1.25,0,2.27-1.02,2.27-2.28
		C5.05,15.47,4.03,14.45,2.78,14.45z"/>
</g>
<g>
	<path fill="#0E4980" d="M2.78,27.79v3.31c3.1,0,5.62,2.52,5.62,5.62h3.31C11.71,31.8,7.7,27.79,2.78,27.79z"/>
	<path fill="#0E4980" d="M13.89,25.61C10.93,22.64,6.98,21,2.78,21v3.31c6.84,0,12.41,5.57,12.41,12.41h3.31
		C18.5,32.52,16.86,28.57,13.89,25.61z"/>
	<path fill="#0E4980" d="M2.78,34.45c-1.26,0-2.28,1.02-2.28,2.27C0.5,37.98,1.52,39,2.78,39c1.25,0,2.27-1.02,2.27-2.28
		C5.05,35.47,4.03,34.45,2.78,34.45z"/>
</g>
<g>
	<path fill="#999999" d="M2.78,47.79v3.31c3.1,0,5.62,2.52,5.62,5.62h3.31C11.71,51.8,7.7,47.79,2.78,47.79z"/>
	<path fill="#999999" d="M13.89,45.61C10.93,42.64,6.98,41,2.78,41v3.31c6.84,0,12.41,5.57,12.41,12.41h3.31
		C18.5,52.52,16.86,48.57,13.89,45.61z"/>
	<path fill="#999999" d="M2.78,54.45c-1.26,0-2.28,1.02-2.28,2.27C0.5,57.98,1.52,59,2.78,59c1.25,0,2.27-1.02,2.27-2.28
		C5.05,55.47,4.03,54.45,2.78,54.45z"/>
</g>
<g>
	<path fill="#666566" d="M2.78,67.79v3.31c3.1,0,5.62,2.52,5.62,5.62h3.31C11.71,71.8,7.7,67.79,2.78,67.79z"/>
	<path fill="#666566" d="M13.89,65.61C10.93,62.64,6.98,61,2.78,61v3.31c6.84,0,12.41,5.57,12.41,12.41h3.31
		C18.5,72.52,16.86,68.57,13.89,65.61z"/>
	<path fill="#666566" d="M2.78,74.45c-1.26,0-2.28,1.02-2.28,2.27C0.5,77.98,1.52,79,2.78,79c1.25,0,2.27-1.02,2.27-2.28
		C5.05,75.47,4.03,74.45,2.78,74.45z"/>
</g>
<g>
	<path fill="#369C89" d="M2.78,87.79v3.31c3.1,0,5.62,2.521,5.62,5.621h3.31C11.71,91.8,7.7,87.79,2.78,87.79z"/>
	<path fill="#369C89" d="M13.89,85.609C10.93,82.641,6.98,81,2.78,81v3.311c6.84,0,12.41,5.569,12.41,12.41h3.31
		C18.5,92.52,16.86,88.57,13.89,85.609z"/>
	<path fill="#369C89" d="M2.78,94.45c-1.26,0-2.28,1.021-2.28,2.271C0.5,97.98,1.52,99,2.78,99c1.25,0,2.27-1.02,2.27-2.279
		C5.05,95.471,4.03,94.45,2.78,94.45z"/>
</g>
<g>
	<path fill="#C75043" d="M2.78,127.79v3.31c3.1,0,5.62,2.521,5.62,5.621h3.31C11.71,131.8,7.7,127.79,2.78,127.79z"/>
	<path fill="#C75043" d="M13.89,125.609C10.93,122.641,6.98,121,2.78,121v3.311c6.84,0,12.41,5.569,12.41,12.41h3.31
		C18.5,132.52,16.86,128.57,13.89,125.609z"/>
	<path fill="#C75043" d="M2.78,134.45c-1.26,0-2.28,1.021-2.28,2.271c0,1.26,1.02,2.279,2.28,2.279c1.25,0,2.27-1.02,2.27-2.279
		C5.05,135.471,4.03,134.45,2.78,134.45z"/>
</g>
<g>
	<path fill="#1B826B" d="M2.78,107.79v3.31c3.1,0,5.62,2.521,5.62,5.621h3.31C11.71,111.8,7.7,107.79,2.78,107.79z"/>
	<path fill="#1B826B" d="M13.89,105.609C10.93,102.641,6.98,101,2.78,101v3.311c6.84,0,12.41,5.569,12.41,12.41h3.31
		C18.5,112.52,16.86,108.57,13.89,105.609z"/>
	<path fill="#1B826B" d="M2.78,114.45c-1.26,0-2.28,1.021-2.28,2.271c0,1.26,1.02,2.279,2.28,2.279c1.25,0,2.27-1.02,2.27-2.279
		C5.05,115.471,4.03,114.45,2.78,114.45z"/>
</g>
<g>
	<path fill="#A13A2D" d="M2.78,147.79v3.31c3.1,0,5.62,2.521,5.62,5.621h3.31C11.71,151.8,7.7,147.79,2.78,147.79z"/>
	<path fill="#A13A2D" d="M13.89,145.609C10.93,142.641,6.98,141,2.78,141v3.311c6.84,0,12.41,5.569,12.41,12.41h3.31
		C18.5,152.52,16.86,148.57,13.89,145.609z"/>
	<path fill="#A13A2D" d="M2.78,154.45c-1.26,0-2.28,1.021-2.28,2.271c0,1.26,1.02,2.279,2.28,2.279c1.25,0,2.27-1.02,2.27-2.279
		C5.05,155.471,4.03,154.45,2.78,154.45z"/>
</g>
<g>
	<path fill-rule="evenodd" clip-rule="evenodd" fill="#1761A4" d="M37.14,4.54h-2.13v-1.9h2.13V4.54z M37.14,17.36h-2.13v-1.9h2.13
		V17.36z M30,13.32c-1.77,0-3.2-1.48-3.2-3.32s1.43-3.33,3.2-3.33s3.2,1.49,3.2,3.33S31.77,13.32,30,13.32z M33.09,17.36h-2.13v-1.9
		h2.13V17.36z M29.04,17.36h-2.13v-1.9h2.13V17.36z M24.99,4.54h-2.13v-1.9h2.13V4.54z M24.99,17.36h-2.13v-1.9h2.13V17.36z
		 M26.91,2.64h2.13v1.9h-2.13V2.64z M30.96,2.64h2.13v1.9h-2.13V2.64z M21,1v18h18V1H21z"/>
	<g>
		<polygon fill="#1761A4" points="29.27,8.1 29.27,11.9 31.63,10 		"/>
	</g>
</g>
<g>
	<path fill-rule="evenodd" clip-rule="evenodd" fill="#0E4980" d="M37.14,24.54h-2.13v-1.9h2.13V24.54z M37.14,37.36h-2.13v-1.9
		h2.13V37.36z M30,33.32c-1.77,0-3.2-1.48-3.2-3.32s1.43-3.33,3.2-3.33s3.2,1.49,3.2,3.33S31.77,33.32,30,33.32z M33.09,37.36h-2.13
		v-1.9h2.13V37.36z M29.04,37.36h-2.13v-1.9h2.13V37.36z M24.99,24.54h-2.13v-1.9h2.13V24.54z M24.99,37.36h-2.13v-1.9h2.13V37.36z
		 M26.91,22.64h2.13v1.9h-2.13V22.64z M30.96,22.64h2.13v1.9h-2.13V22.64z M21,21v18h18V21H21z"/>
	<g>
		<polygon fill="#0E4980" points="29.27,28.1 29.27,31.9 31.63,30 		"/>
	</g>
</g>
<g>
	<path fill-rule="evenodd" clip-rule="evenodd" fill="#999999" d="M37.14,44.54h-2.13v-1.9h2.13V44.54z M37.14,57.36h-2.13v-1.9
		h2.13V57.36z M30,53.32c-1.77,0-3.2-1.48-3.2-3.32s1.43-3.33,3.2-3.33s3.2,1.49,3.2,3.33S31.77,53.32,30,53.32z M33.09,57.36h-2.13
		v-1.9h2.13V57.36z M29.04,57.36h-2.13v-1.9h2.13V57.36z M24.99,44.54h-2.13v-1.9h2.13V44.54z M24.99,57.36h-2.13v-1.9h2.13V57.36z
		 M26.91,42.64h2.13v1.9h-2.13V42.64z M30.96,42.64h2.13v1.9h-2.13V42.64z M21,41v18h18V41H21z"/>
	<g>
		<polygon fill="#999999" points="29.27,48.1 29.27,51.9 31.63,50 		"/>
	</g>
</g>
<g>
	<path fill-rule="evenodd" clip-rule="evenodd" fill="#666566" d="M37.14,64.54h-2.13v-1.9h2.13V64.54z M37.14,77.36h-2.13v-1.9
		h2.13V77.36z M30,73.32c-1.77,0-3.2-1.48-3.2-3.32s1.43-3.33,3.2-3.33s3.2,1.49,3.2,3.33S31.77,73.32,30,73.32z M33.09,77.36h-2.13
		v-1.9h2.13V77.36z M29.04,77.36h-2.13v-1.9h2.13V77.36z M24.99,64.54h-2.13v-1.9h2.13V64.54z M24.99,77.36h-2.13v-1.9h2.13V77.36z
		 M26.91,62.64h2.13v1.9h-2.13V62.64z M30.96,62.64h2.13v1.9h-2.13V62.64z M21,61v18h18V61H21z"/>
	<g>
		<polygon fill="#666566" points="29.27,68.1 29.27,71.9 31.63,70 		"/>
	</g>
</g>
<g>
	<path fill-rule="evenodd" clip-rule="evenodd" fill="#369C89" d="M37.14,84.54h-2.13v-1.899h2.13V84.54z M37.14,97.359h-2.13V95.46
		h2.13V97.359z M30,93.32c-1.77,0-3.2-1.48-3.2-3.32s1.43-3.33,3.2-3.33s3.2,1.49,3.2,3.33S31.77,93.32,30,93.32z M33.09,97.359
		h-2.13V95.46h2.13V97.359z M29.04,97.359h-2.13V95.46h2.13V97.359z M24.99,84.54h-2.13v-1.899h2.13V84.54z M24.99,97.359h-2.13
		V95.46h2.13V97.359z M26.91,82.641h2.13v1.899h-2.13V82.641z M30.96,82.641h2.13v1.899h-2.13V82.641z M21,81v18h18V81H21z"/>
	<g>
		<polygon fill="#369C89" points="29.27,88.1 29.27,91.9 31.63,90 		"/>
	</g>
</g>
<g>
	<path fill-rule="evenodd" clip-rule="evenodd" fill="#C75043" d="M37.14,124.54h-2.13v-1.899h2.13V124.54z M37.14,137.359h-2.13
		v-1.899h2.13V137.359z M30,133.32c-1.77,0-3.2-1.48-3.2-3.32s1.43-3.33,3.2-3.33s3.2,1.49,3.2,3.33S31.77,133.32,30,133.32z
		 M33.09,137.359h-2.13v-1.899h2.13V137.359z M29.04,137.359h-2.13v-1.899h2.13V137.359z M24.99,124.54h-2.13v-1.899h2.13V124.54z
		 M24.99,137.359h-2.13v-1.899h2.13V137.359z M26.91,122.641h2.13v1.899h-2.13V122.641z M30.96,122.641h2.13v1.899h-2.13V122.641z
		 M21,121v18h18v-18H21z"/>
	<g>
		<polygon fill="#C75043" points="29.27,128.1 29.27,131.9 31.63,130 		"/>
	</g>
</g>
<g>
	<path fill-rule="evenodd" clip-rule="evenodd" fill="#1B826B" d="M37.14,104.54h-2.13v-1.899h2.13V104.54z M37.14,117.359h-2.13
		v-1.899h2.13V117.359z M30,113.32c-1.77,0-3.2-1.48-3.2-3.32s1.43-3.33,3.2-3.33s3.2,1.49,3.2,3.33S31.77,113.32,30,113.32z
		 M33.09,117.359h-2.13v-1.899h2.13V117.359z M29.04,117.359h-2.13v-1.899h2.13V117.359z M24.99,104.54h-2.13v-1.899h2.13V104.54z
		 M24.99,117.359h-2.13v-1.899h2.13V117.359z M26.91,102.641h2.13v1.899h-2.13V102.641z M30.96,102.641h2.13v1.899h-2.13V102.641z
		 M21,101v18h18v-18H21z"/>
	<g>
		<polygon fill="#1B826B" points="29.27,108.1 29.27,111.9 31.63,110 		"/>
	</g>
</g>
<g>
	<path fill-rule="evenodd" clip-rule="evenodd" fill="#A13A2D" d="M37.14,144.54h-2.13v-1.899h2.13V144.54z M37.14,157.359h-2.13
		v-1.899h2.13V157.359z M30,153.32c-1.77,0-3.2-1.48-3.2-3.32s1.43-3.33,3.2-3.33s3.2,1.49,3.2,3.33S31.77,153.32,30,153.32z
		 M33.09,157.359h-2.13v-1.899h2.13V157.359z M29.04,157.359h-2.13v-1.899h2.13V157.359z M24.99,144.54h-2.13v-1.899h2.13V144.54z
		 M24.99,157.359h-2.13v-1.899h2.13V157.359z M26.91,142.641h2.13v1.899h-2.13V142.641z M30.96,142.641h2.13v1.899h-2.13V142.641z
		 M21,141v18h18v-18H21z"/>
	<g>
		<polygon fill="#A13A2D" points="29.27,148.1 29.27,151.9 31.63,150 		"/>
	</g>
</g>
<g>
	<path fill="#1761A4" d="M50,9.8c2.05,0,3.71-1.97,3.71-4.4C53.71,2.97,53.16,1,50,1s-3.71,1.97-3.71,4.4
		C46.29,7.83,47.95,9.8,50,9.8z"/>
	<path fill="#1761A4" d="M56.99,16.35c-0.07-4.24-0.63-5.45-4.96-6.21c0,0-0.61,0.76-2.03,0.76s-2.03-0.76-2.03-0.76
		c-4.28,0.76-4.88,1.95-4.96,6.07L43,16.52v0.45c0,0,1.03,2.03,7,2.03s7-2.03,7-2.03v-0.33L56.99,16.35z"/>
</g>
<g>
	<path fill="#0E4980" d="M50,29.8c2.05,0,3.71-1.97,3.71-4.4c0-2.43-0.55-4.4-3.71-4.4s-3.71,1.97-3.71,4.4
		C46.29,27.83,47.95,29.8,50,29.8z"/>
	<path fill="#0E4980" d="M56.99,36.35c-0.07-4.24-0.63-5.45-4.96-6.21c0,0-0.61,0.76-2.03,0.76s-2.03-0.76-2.03-0.76
		c-4.28,0.76-4.88,1.95-4.96,6.07L43,36.52v0.45c0,0,1.03,2.03,7,2.03s7-2.03,7-2.03v-0.33L56.99,36.35z"/>
</g>
<g>
	<path fill="#999999" d="M50,49.8c2.05,0,3.71-1.97,3.71-4.4c0-2.43-0.55-4.4-3.71-4.4s-3.71,1.97-3.71,4.4
		C46.29,47.83,47.95,49.8,50,49.8z"/>
	<path fill="#999999" d="M56.99,56.35c-0.07-4.24-0.63-5.45-4.96-6.21c0,0-0.61,0.76-2.03,0.76s-2.03-0.76-2.03-0.76
		c-4.28,0.76-4.88,1.95-4.96,6.07L43,56.52v0.45c0,0,1.03,2.03,7,2.03s7-2.03,7-2.03v-0.33L56.99,56.35z"/>
</g>
<g>
	<path fill="#666566" d="M50,69.8c2.05,0,3.71-1.97,3.71-4.4c0-2.43-0.55-4.4-3.71-4.4s-3.71,1.97-3.71,4.4
		C46.29,67.83,47.95,69.8,50,69.8z"/>
	<path fill="#666566" d="M56.99,76.35c-0.07-4.24-0.63-5.45-4.96-6.21c0,0-0.61,0.76-2.03,0.76s-2.03-0.76-2.03-0.76
		c-4.28,0.76-4.88,1.95-4.96,6.07L43,76.52v0.45c0,0,1.03,2.03,7,2.03s7-2.03,7-2.03v-0.33L56.99,76.35z"/>
</g>
<g>
	<path fill="#369C89" d="M50,89.8c2.05,0,3.71-1.97,3.71-4.399S53.16,81,50,81s-3.71,1.971-3.71,4.4S47.95,89.8,50,89.8z"/>
	<path fill="#369C89" d="M56.99,96.35c-0.07-4.24-0.63-5.449-4.96-6.209c0,0-0.61,0.76-2.03,0.76s-2.03-0.76-2.03-0.76
		c-4.28,0.76-4.88,1.949-4.96,6.069L43,96.52v0.451c0,0,1.03,2.029,7,2.029s7-2.029,7-2.029v-0.33L56.99,96.35z"/>
</g>
<g>
	<path fill="#C75043" d="M50,129.8c2.05,0,3.71-1.97,3.71-4.399S53.16,121,50,121s-3.71,1.971-3.71,4.4S47.95,129.8,50,129.8z"/>
	<path fill="#C75043" d="M56.99,136.35c-0.07-4.24-0.63-5.449-4.96-6.209c0,0-0.61,0.76-2.03,0.76s-2.03-0.76-2.03-0.76
		c-4.28,0.76-4.88,1.949-4.96,6.069L43,136.52v0.451c0,0,1.03,2.029,7,2.029s7-2.029,7-2.029v-0.33L56.99,136.35z"/>
</g>
<g>
	<path fill="#1B826B" d="M50,109.8c2.05,0,3.71-1.97,3.71-4.399S53.16,101,50,101s-3.71,1.971-3.71,4.4S47.95,109.8,50,109.8z"/>
	<path fill="#1B826B" d="M56.99,116.35c-0.07-4.24-0.63-5.449-4.96-6.209c0,0-0.61,0.76-2.03,0.76s-2.03-0.76-2.03-0.76
		c-4.28,0.76-4.88,1.949-4.96,6.069L43,116.52v0.451c0,0,1.03,2.029,7,2.029s7-2.029,7-2.029v-0.33L56.99,116.35z"/>
</g>
<g>
	<path fill="#A13A2D" d="M50,149.8c2.05,0,3.71-1.97,3.71-4.399S53.16,141,50,141s-3.71,1.971-3.71,4.4S47.95,149.8,50,149.8z"/>
	<path fill="#A13A2D" d="M56.99,156.35c-0.07-4.24-0.63-5.449-4.96-6.209c0,0-0.61,0.76-2.03,0.76s-2.03-0.76-2.03-0.76
		c-4.28,0.76-4.88,1.949-4.96,6.069L43,156.52v0.451c0,0,1.03,2.029,7,2.029s7-2.029,7-2.029v-0.33L56.99,156.35z"/>
</g>
<g>
	<path fill="#1761A4" d="M74.75,16.7H63.3V5.3h4.75c0.81-0.85,1.78-1.62,2.88-2.3H61v16h16.06V7.96l-2.31,2.99V16.7L74.75,16.7z"/>
	<path fill="#1761A4" d="M67.12,14.09c0.21-4.17,3.33-6.51,7.08-7.15l0.58,2.12L79,3.59L72.58,1l0.59,2.15
		C69.08,5.27,65.76,9.17,67.12,14.09z"/>
</g>
<g>
	<path fill="#0E4980" d="M74.75,36.7H63.3V25.3h4.75c0.81-0.85,1.78-1.62,2.88-2.3H61v16h16.06V27.96l-2.31,2.99V36.7L74.75,36.7z"
		/>
	<path fill="#0E4980" d="M67.12,34.09c0.21-4.17,3.33-6.51,7.08-7.15l0.58,2.12L79,23.59L72.58,21l0.59,2.15
		C69.08,25.27,65.76,29.17,67.12,34.09z"/>
</g>
<g>
	<path fill="#999999" d="M74.75,56.7H63.3V45.3h4.75c0.81-0.85,1.78-1.62,2.88-2.3H61v16h16.06V47.96l-2.31,2.99V56.7L74.75,56.7z"
		/>
	<path fill="#999999" d="M67.12,54.09c0.21-4.17,3.33-6.51,7.08-7.15l0.58,2.12L79,43.59L72.58,41l0.59,2.15
		C69.08,45.27,65.76,49.17,67.12,54.09z"/>
</g>
<g>
	<path fill="#666566" d="M74.75,76.7H63.3V65.3h4.75c0.81-0.85,1.78-1.62,2.88-2.3H61v16h16.06V67.96l-2.31,2.99V76.7L74.75,76.7z"
		/>
	<path fill="#666566" d="M67.12,74.09c0.21-4.17,3.33-6.51,7.08-7.15l0.58,2.12L79,63.59L72.58,61l0.59,2.15
		C69.08,65.27,65.76,69.17,67.12,74.09z"/>
</g>
<g>
	<path fill="#369C89" d="M74.75,96.7H63.3V85.3h4.75c0.81-0.85,1.78-1.62,2.88-2.3H61v16h16.06V87.96l-2.31,2.99V96.7L74.75,96.7z"
		/>
	<path fill="#369C89" d="M67.12,94.09c0.21-4.17,3.33-6.51,7.08-7.15l0.58,2.121L79,83.59L72.58,81l0.59,2.15
		C69.08,85.27,65.76,89.17,67.12,94.09z"/>
</g>
<g>
	<path fill="#C75043" d="M74.75,136.7H63.3v-11.4h4.75c0.81-0.85,1.78-1.62,2.88-2.3H61v16h16.06v-11.04l-2.31,2.99V136.7
		L74.75,136.7z"/>
	<path fill="#C75043" d="M67.12,134.09c0.21-4.17,3.33-6.51,7.08-7.15l0.58,2.121L79,123.59L72.58,121l0.59,2.15
		C69.08,125.27,65.76,129.17,67.12,134.09z"/>
</g>
<g>
	<path fill="#1B826B" d="M74.75,116.7H63.3v-11.4h4.75c0.81-0.85,1.78-1.62,2.88-2.3H61v16h16.06v-11.04l-2.31,2.99V116.7
		L74.75,116.7z"/>
	<path fill="#1B826B" d="M67.12,114.09c0.21-4.17,3.33-6.51,7.08-7.15l0.58,2.121L79,103.59L72.58,101l0.59,2.15
		C69.08,105.27,65.76,109.17,67.12,114.09z"/>
</g>
<g>
	<path fill="#A13A2D" d="M74.75,156.7H63.3v-11.4h4.75c0.81-0.85,1.78-1.62,2.88-2.3H61v16h16.06v-11.04l-2.31,2.99V156.7
		L74.75,156.7z"/>
	<path fill="#A13A2D" d="M67.12,154.09c0.21-4.17,3.33-6.51,7.08-7.15l0.58,2.121L79,143.59L72.58,141l0.59,2.15
		C69.08,145.27,65.76,149.17,67.12,154.09z"/>
</g>
<g>
	<path fill-rule="evenodd" clip-rule="evenodd" fill="#1761A4" d="M94.27,15.34h-8.54V2.99h8.54V15.34L94.27,15.34z M90,17.88
		c-0.5,0-0.91-0.37-0.91-0.83s0.41-0.83,0.91-0.83s0.91,0.37,0.91,0.83S90.5,17.88,90,17.88z M88.55,1.58h2.9v0.78h-2.9V1.58z M84,1
		v18h12V1H84z"/>
</g>
<g>
	<path fill-rule="evenodd" clip-rule="evenodd" fill="#0E4980" d="M94.27,35.34h-8.54V22.99h8.54V35.34L94.27,35.34z M90,37.88
		c-0.5,0-0.91-0.37-0.91-0.83s0.41-0.83,0.91-0.83s0.91,0.37,0.91,0.83S90.5,37.88,90,37.88z M88.55,21.58h2.9v0.78h-2.9V21.58z
		 M84,21v18h12V21H84z"/>
</g>
<g>
	<path fill-rule="evenodd" clip-rule="evenodd" fill="#999999" d="M94.27,55.34h-8.54V42.99h8.54V55.34L94.27,55.34z M90,57.88
		c-0.5,0-0.91-0.37-0.91-0.83s0.41-0.83,0.91-0.83s0.91,0.37,0.91,0.83S90.5,57.88,90,57.88z M88.55,41.58h2.9v0.78h-2.9V41.58z
		 M84,41v18h12V41H84z"/>
</g>
<g>
	<path fill-rule="evenodd" clip-rule="evenodd" fill="#666566" d="M94.27,75.34h-8.54V62.99h8.54V75.34L94.27,75.34z M90,77.88
		c-0.5,0-0.91-0.37-0.91-0.83s0.41-0.83,0.91-0.83s0.91,0.37,0.91,0.83S90.5,77.88,90,77.88z M88.55,61.58h2.9v0.78h-2.9V61.58z
		 M84,61v18h12V61H84z"/>
</g>
<g>
	<path fill-rule="evenodd" clip-rule="evenodd" fill="#369C89" d="M94.27,95.34h-8.54V82.99h8.54V95.34L94.27,95.34z M90,97.88
		c-0.5,0-0.91-0.37-0.91-0.83s0.41-0.829,0.91-0.829s0.91,0.369,0.91,0.829S90.5,97.88,90,97.88z M88.55,81.58h2.9v0.779h-2.9V81.58
		z M84,81v18h12V81H84z"/>
</g>
<g>
	<path fill-rule="evenodd" clip-rule="evenodd" fill="#C75043" d="M94.27,135.34h-8.54v-12.35h8.54V135.34L94.27,135.34z M90,137.88
		c-0.5,0-0.91-0.37-0.91-0.83s0.41-0.829,0.91-0.829s0.91,0.369,0.91,0.829S90.5,137.88,90,137.88z M88.55,121.58h2.9v0.779h-2.9
		V121.58z M84,121v18h12v-18H84z"/>
</g>
<g>
	<path fill-rule="evenodd" clip-rule="evenodd" fill="#1B826B" d="M94.27,115.34h-8.54v-12.35h8.54V115.34L94.27,115.34z M90,117.88
		c-0.5,0-0.91-0.37-0.91-0.83s0.41-0.829,0.91-0.829s0.91,0.369,0.91,0.829S90.5,117.88,90,117.88z M88.55,101.58h2.9v0.779h-2.9
		V101.58z M84,101v18h12v-18H84z"/>
</g>
<g>
	<path fill-rule="evenodd" clip-rule="evenodd" fill="#A13A2D" d="M94.27,155.34h-8.54v-12.35h8.54V155.34L94.27,155.34z M90,157.88
		c-0.5,0-0.91-0.37-0.91-0.83s0.41-0.829,0.91-0.829s0.91,0.369,0.91,0.829S90.5,157.88,90,157.88z M88.55,141.58h2.9v0.779h-2.9
		V141.58z M84,141v18h12v-18H84z"/>
</g>
<g>
	<path fill-rule="evenodd" clip-rule="evenodd" fill="#1761A4" d="M116.95,4v9.58L113.76,10l-2.82,2.36l-3.97-4.53l-3.92,5.2V4
		H116.95z M101,2v16h18V2H101z"/>
	<path fill="#1761A4" d="M112.3,8.17c0.8,0,1.44-0.63,1.44-1.4c0-0.78-0.64-1.4-1.44-1.4c-0.79,0-1.43,0.62-1.43,1.4
		C110.87,7.54,111.51,8.17,112.3,8.17z"/>
</g>
<g>
	<path fill-rule="evenodd" clip-rule="evenodd" fill="#0E4980" d="M116.95,24v9.58L113.76,30l-2.82,2.36l-3.97-4.53l-3.92,5.2V24
		H116.95z M101,22v16h18V22H101z"/>
	<path fill="#0E4980" d="M112.3,28.17c0.8,0,1.44-0.63,1.44-1.4c0-0.78-0.64-1.4-1.44-1.4c-0.79,0-1.43,0.62-1.43,1.4
		C110.87,27.54,111.51,28.17,112.3,28.17z"/>
</g>
<g>
	<path fill-rule="evenodd" clip-rule="evenodd" fill="#999999" d="M116.95,44v9.58L113.76,50l-2.82,2.36l-3.97-4.53l-3.92,5.2V44
		H116.95z M101,42v16h18V42H101z"/>
	<path fill="#999999" d="M112.3,48.17c0.8,0,1.44-0.63,1.44-1.4c0-0.78-0.64-1.4-1.44-1.4c-0.79,0-1.43,0.62-1.43,1.4
		C110.87,47.54,111.51,48.17,112.3,48.17z"/>
</g>
<g>
	<path fill-rule="evenodd" clip-rule="evenodd" fill="#666566" d="M116.95,64v9.58L113.76,70l-2.82,2.36l-3.97-4.53l-3.92,5.2V64
		H116.95z M101,62v16h18V62H101z"/>
	<path fill="#666566" d="M112.3,68.17c0.8,0,1.44-0.63,1.44-1.4c0-0.78-0.64-1.4-1.44-1.4c-0.79,0-1.43,0.62-1.43,1.4
		C110.87,67.54,111.51,68.17,112.3,68.17z"/>
</g>
<g>
	<path fill-rule="evenodd" clip-rule="evenodd" fill="#369C89" d="M116.95,84v9.58L113.76,90l-2.82,2.359l-3.97-4.529l-3.92,5.199
		V84H116.95z M101,82v16h18V82H101z"/>
	<path fill="#369C89" d="M112.3,88.17c0.8,0,1.44-0.63,1.44-1.4c0-0.779-0.64-1.399-1.44-1.399c-0.79,0-1.43,0.62-1.43,1.399
		C110.87,87.54,111.51,88.17,112.3,88.17z"/>
</g>
<g>
	<path fill-rule="evenodd" clip-rule="evenodd" fill="#C75043" d="M116.95,124v9.58l-3.19-3.58l-2.82,2.359l-3.97-4.529l-3.92,5.199
		V124H116.95z M101,122v16h18v-16H101z"/>
	<path fill="#C75043" d="M112.3,128.17c0.8,0,1.44-0.63,1.44-1.4c0-0.779-0.64-1.399-1.44-1.399c-0.79,0-1.43,0.62-1.43,1.399
		C110.87,127.54,111.51,128.17,112.3,128.17z"/>
</g>
<g>
	<path fill-rule="evenodd" clip-rule="evenodd" fill="#1B826B" d="M116.95,104v9.58l-3.19-3.58l-2.82,2.359l-3.97-4.529l-3.92,5.199
		V104H116.95z M101,102v16h18v-16H101z"/>
	<path fill="#1B826B" d="M112.3,108.17c0.8,0,1.44-0.63,1.44-1.4c0-0.779-0.64-1.399-1.44-1.399c-0.79,0-1.43,0.62-1.43,1.399
		C110.87,107.54,111.51,108.17,112.3,108.17z"/>
</g>
<g>
	<path fill-rule="evenodd" clip-rule="evenodd" fill="#A13A2D" d="M116.95,144v9.58l-3.19-3.58l-2.82,2.359l-3.97-4.529l-3.92,5.199
		V144H116.95z M101,142v16h18v-16H101z"/>
	<path fill="#A13A2D" d="M112.3,148.17c0.8,0,1.44-0.63,1.44-1.4c0-0.779-0.64-1.399-1.44-1.399c-0.79,0-1.43,0.62-1.43,1.399
		C110.87,147.54,111.51,148.17,112.3,148.17z"/>
</g>
<g>
	<path fill="#1761A4" d="M137.77,15.92l-2.56-3.19c-0.35-0.45-1.01-0.53-1.47-0.17l-0.98,0.76c-0.46,0.35-2.41,0.56-4.39-1.91
		c-1.97-2.47-1.35-4.26-0.89-4.61l0.98-0.77c0.46-0.35,0.53-1,0.18-1.44l-2.56-3.2c-0.36-0.44-1.02-0.52-1.48-0.17l-1.01,0.79
		c-1.39,1.13-1.89,3.05-1.41,5.43c0.41,2.06,1.53,4.3,3.15,6.33c1.63,2.02,3.59,3.62,5.52,4.49c2.27,1.03,4.32,0.98,5.76-0.12v-0.01
		l0.99-0.76C138.06,17.01,138.13,16.37,137.77,15.92z"/>
</g>
<g>
	<path fill="#0E4980" d="M137.77,35.92l-2.56-3.19c-0.35-0.45-1.01-0.53-1.47-0.17l-0.98,0.76c-0.46,0.35-2.41,0.56-4.39-1.91
		c-1.97-2.47-1.35-4.26-0.89-4.61l0.98-0.77c0.46-0.35,0.53-1,0.18-1.44l-2.56-3.2c-0.36-0.44-1.02-0.52-1.48-0.17l-1.01,0.79
		c-1.39,1.13-1.89,3.05-1.41,5.43c0.41,2.06,1.53,4.3,3.15,6.33c1.63,2.02,3.59,3.62,5.52,4.49c2.27,1.03,4.32,0.98,5.76-0.12v-0.01
		l0.99-0.76C138.06,37.01,138.13,36.37,137.77,35.92z"/>
</g>
<g>
	<path fill="#999999" d="M137.77,55.92l-2.56-3.19c-0.35-0.45-1.01-0.53-1.47-0.17l-0.98,0.76c-0.46,0.35-2.41,0.56-4.39-1.91
		c-1.97-2.47-1.35-4.26-0.89-4.61l0.98-0.77c0.46-0.35,0.53-1,0.18-1.44l-2.56-3.2c-0.36-0.44-1.02-0.52-1.48-0.17l-1.01,0.79
		c-1.39,1.13-1.89,3.05-1.41,5.43c0.41,2.06,1.53,4.3,3.15,6.33c1.63,2.02,3.59,3.62,5.52,4.49c2.27,1.03,4.32,0.98,5.76-0.12v-0.01
		l0.99-0.76C138.06,57.01,138.13,56.37,137.77,55.92z"/>
</g>
<g>
	<path fill="#666566" d="M137.77,75.92l-2.56-3.19c-0.35-0.45-1.01-0.53-1.47-0.17l-0.98,0.76c-0.46,0.35-2.41,0.56-4.39-1.91
		c-1.97-2.47-1.35-4.26-0.89-4.61l0.98-0.77c0.46-0.35,0.53-1,0.18-1.44l-2.56-3.2c-0.36-0.44-1.02-0.52-1.48-0.17l-1.01,0.79
		c-1.39,1.13-1.89,3.05-1.41,5.43c0.41,2.06,1.53,4.3,3.15,6.33c1.63,2.02,3.59,3.62,5.52,4.49c2.27,1.03,4.32,0.98,5.76-0.12v-0.01
		l0.99-0.76C138.06,77.01,138.13,76.37,137.77,75.92z"/>
</g>
<g>
	<path fill="#369C89" d="M137.77,95.92l-2.56-3.189c-0.35-0.451-1.01-0.53-1.47-0.17l-0.98,0.76c-0.46,0.35-2.41,0.56-4.39-1.91
		c-1.97-2.471-1.35-4.26-0.89-4.61l0.98-0.771c0.46-0.35,0.53-1,0.18-1.439l-2.56-3.199c-0.36-0.44-1.02-0.521-1.48-0.17
		l-1.01,0.789c-1.39,1.131-1.89,3.051-1.41,5.43c0.41,2.061,1.53,4.301,3.15,6.33c1.63,2.021,3.59,3.621,5.52,4.49
		c2.27,1.03,4.32,0.98,5.76-0.119V98.13l0.99-0.76C138.06,97.01,138.13,96.37,137.77,95.92z"/>
</g>
<g>
	<path fill="#C75043" d="M137.77,135.92l-2.56-3.189c-0.35-0.451-1.01-0.53-1.47-0.17l-0.98,0.76c-0.46,0.35-2.41,0.56-4.39-1.91
		c-1.97-2.471-1.35-4.26-0.89-4.61l0.98-0.771c0.46-0.35,0.53-1,0.18-1.439l-2.56-3.199c-0.36-0.44-1.02-0.521-1.48-0.17
		l-1.01,0.789c-1.39,1.131-1.89,3.051-1.41,5.43c0.41,2.061,1.53,4.301,3.15,6.33c1.63,2.021,3.59,3.621,5.52,4.49
		c2.27,1.03,4.32,0.98,5.76-0.119v-0.011l0.99-0.76C138.06,137.01,138.13,136.37,137.77,135.92z"/>
</g>
<g>
	<path fill="#1B826B" d="M137.77,115.92l-2.56-3.189c-0.35-0.451-1.01-0.53-1.47-0.17l-0.98,0.76c-0.46,0.35-2.41,0.56-4.39-1.91
		c-1.97-2.471-1.35-4.26-0.89-4.61l0.98-0.771c0.46-0.35,0.53-1,0.18-1.439l-2.56-3.199c-0.36-0.44-1.02-0.521-1.48-0.17
		l-1.01,0.789c-1.39,1.131-1.89,3.051-1.41,5.43c0.41,2.061,1.53,4.301,3.15,6.33c1.63,2.021,3.59,3.621,5.52,4.49
		c2.27,1.03,4.32,0.98,5.76-0.119v-0.011l0.99-0.76C138.06,117.01,138.13,116.37,137.77,115.92z"/>
</g>
<g>
	<path fill="#A13A2D" d="M137.77,155.92l-2.56-3.189c-0.35-0.451-1.01-0.53-1.47-0.17l-0.98,0.76c-0.46,0.35-2.41,0.56-4.39-1.91
		c-1.97-2.471-1.35-4.26-0.89-4.61l0.98-0.771c0.46-0.35,0.53-1,0.18-1.439l-2.56-3.199c-0.36-0.44-1.02-0.521-1.48-0.17
		l-1.01,0.789c-1.39,1.131-1.89,3.051-1.41,5.43c0.41,2.061,1.53,4.301,3.15,6.33c1.63,2.021,3.59,3.621,5.52,4.49
		c2.27,1.03,4.32,0.98,5.76-0.119v-0.011l0.99-0.76C138.06,157.01,138.13,156.37,137.77,155.92z"/>
</g>
<g>
	<path fill-rule="evenodd" clip-rule="evenodd" fill="#1761A4" d="M155.94,4.65l1.09,1.09l-0.8,0.8l-1.1-1.09L155.94,4.65z
		 M153.46,3.78l0.8-0.81l1.09,1.09l-0.8,0.81L153.46,3.78z M151.72,9.73l-3.89,3.89c-0.4,0.4-1.05,0.4-1.45,0s-0.4-1.05,0-1.45
		l3.89-3.89c0.4-0.4,1.05-0.4,1.45,0C152.12,8.68,152.12,9.33,151.72,9.73z M159,4.82L155.18,1l-2.78,2.78l-1.03-1.03L141.33,12.8
		c-0.44,0.44-0.44,1.14,0,1.58l4.29,4.29c0.44,0.44,1.14,0.44,1.58,0l10.05-10.04l-1.03-1.03L159,4.82z"/>
</g>
<g>
	<path fill-rule="evenodd" clip-rule="evenodd" fill="#0E4980" d="M155.94,24.65l1.09,1.09l-0.8,0.8l-1.1-1.09L155.94,24.65z
		 M153.46,23.78l0.8-0.81l1.09,1.09l-0.8,0.81L153.46,23.78z M151.72,29.73l-3.89,3.89c-0.4,0.4-1.05,0.4-1.45,0s-0.4-1.05,0-1.45
		l3.89-3.89c0.4-0.4,1.05-0.4,1.45,0C152.12,28.68,152.12,29.33,151.72,29.73z M159,24.82L155.18,21l-2.78,2.78l-1.03-1.03
		L141.33,32.8c-0.44,0.44-0.44,1.14,0,1.58l4.29,4.29c0.44,0.44,1.14,0.44,1.58,0l10.05-10.04l-1.03-1.03L159,24.82z"/>
</g>
<g>
	<path fill-rule="evenodd" clip-rule="evenodd" fill="#999999" d="M155.94,44.65l1.09,1.09l-0.8,0.8l-1.1-1.09L155.94,44.65z
		 M153.46,43.78l0.8-0.81l1.09,1.09l-0.8,0.81L153.46,43.78z M151.72,49.73l-3.89,3.89c-0.4,0.4-1.05,0.4-1.45,0s-0.4-1.05,0-1.45
		l3.89-3.89c0.4-0.4,1.05-0.4,1.45,0C152.12,48.68,152.12,49.33,151.72,49.73z M159,44.82L155.18,41l-2.78,2.78l-1.03-1.03
		L141.33,52.8c-0.44,0.44-0.44,1.14,0,1.58l4.29,4.29c0.44,0.44,1.14,0.44,1.58,0l10.05-10.04l-1.03-1.03L159,44.82z"/>
</g>
<g>
	<path fill-rule="evenodd" clip-rule="evenodd" fill="#666566" d="M155.94,64.65l1.09,1.09l-0.8,0.8l-1.1-1.09L155.94,64.65z
		 M153.46,63.78l0.8-0.81l1.09,1.09l-0.8,0.81L153.46,63.78z M151.72,69.73l-3.89,3.89c-0.4,0.4-1.05,0.4-1.45,0s-0.4-1.05,0-1.45
		l3.89-3.89c0.4-0.4,1.05-0.4,1.45,0C152.12,68.68,152.12,69.33,151.72,69.73z M159,64.82L155.18,61l-2.78,2.78l-1.03-1.03
		L141.33,72.8c-0.44,0.44-0.44,1.14,0,1.58l4.29,4.29c0.44,0.44,1.14,0.44,1.58,0l10.05-10.04l-1.03-1.03L159,64.82z"/>
</g>
<g>
	<path fill-rule="evenodd" clip-rule="evenodd" fill="#369C89" d="M155.94,84.65l1.09,1.09l-0.8,0.8l-1.1-1.09L155.94,84.65z
		 M153.46,83.779l0.8-0.809l1.09,1.09l-0.8,0.81L153.46,83.779z M151.72,89.73l-3.89,3.89c-0.4,0.399-1.05,0.399-1.45,0
		s-0.4-1.05,0-1.45l3.89-3.891c0.4-0.399,1.05-0.399,1.45,0C152.12,88.68,152.12,89.33,151.72,89.73z M159,84.82L155.18,81
		l-2.78,2.779l-1.03-1.029L141.33,92.8c-0.44,0.44-0.44,1.14,0,1.58l4.29,4.29c0.44,0.439,1.14,0.439,1.58,0l10.05-10.04l-1.03-1.03
		L159,84.82z"/>
</g>
<g>
	<path fill-rule="evenodd" clip-rule="evenodd" fill="#C75043" d="M155.94,124.65l1.09,1.09l-0.8,0.8l-1.1-1.09L155.94,124.65z
		 M153.46,123.779l0.8-0.809l1.09,1.09l-0.8,0.81L153.46,123.779z M151.72,129.73l-3.89,3.89c-0.4,0.399-1.05,0.399-1.45,0
		s-0.4-1.05,0-1.45l3.89-3.891c0.4-0.399,1.05-0.399,1.45,0C152.12,128.68,152.12,129.33,151.72,129.73z M159,124.82l-3.82-3.82
		l-2.78,2.779l-1.03-1.029l-10.04,10.05c-0.44,0.44-0.44,1.14,0,1.58l4.29,4.29c0.44,0.439,1.14,0.439,1.58,0l10.05-10.04
		l-1.03-1.03L159,124.82z"/>
</g>
<g>
	<path fill-rule="evenodd" clip-rule="evenodd" fill="#1B826B" d="M155.94,104.65l1.09,1.09l-0.8,0.8l-1.1-1.09L155.94,104.65z
		 M153.46,103.779l0.8-0.809l1.09,1.09l-0.8,0.81L153.46,103.779z M151.72,109.73l-3.89,3.89c-0.4,0.399-1.05,0.399-1.45,0
		s-0.4-1.05,0-1.45l3.89-3.891c0.4-0.399,1.05-0.399,1.45,0C152.12,108.68,152.12,109.33,151.72,109.73z M159,104.82l-3.82-3.82
		l-2.78,2.779l-1.03-1.029l-10.04,10.05c-0.44,0.44-0.44,1.14,0,1.58l4.29,4.29c0.44,0.439,1.14,0.439,1.58,0l10.05-10.04
		l-1.03-1.03L159,104.82z"/>
</g>
<g>
	<path fill-rule="evenodd" clip-rule="evenodd" fill="#A13A2D" d="M155.94,144.65l1.09,1.09l-0.8,0.8l-1.1-1.09L155.94,144.65z
		 M153.46,143.779l0.8-0.809l1.09,1.09l-0.8,0.81L153.46,143.779z M151.72,149.73l-3.89,3.89c-0.4,0.399-1.05,0.399-1.45,0
		s-0.4-1.05,0-1.45l3.89-3.891c0.4-0.399,1.05-0.399,1.45,0C152.12,148.68,152.12,149.33,151.72,149.73z M159,144.82l-3.82-3.82
		l-2.78,2.779l-1.03-1.029l-10.04,10.05c-0.44,0.44-0.44,1.14,0,1.58l4.29,4.29c0.44,0.439,1.14,0.439,1.58,0l10.05-10.04
		l-1.03-1.03L159,144.82z"/>
</g>
<g>
	<path fill-rule="evenodd" clip-rule="evenodd" fill="#1761A4" d="M170.62,15.27v1.8h-1.24v-1.8c-0.31-0.2-0.51-0.53-0.51-0.9
		c0-0.6,0.5-1.08,1.13-1.08s1.13,0.48,1.13,1.08C171.13,14.74,170.93,15.07,170.62,15.27z M167,6.26c0-1.56,1.35-2.83,3-2.83
		s3,1.27,3,2.83V8.2h-6V6.26z M175.57,8.2V6.26c0-2.9-2.5-5.26-5.57-5.26s-5.57,2.36-5.57,5.26V8.2H163V19h14V8.2H175.57z"/>
</g>
<g>
	<path fill-rule="evenodd" clip-rule="evenodd" fill="#0E4980" d="M170.62,35.27v1.8h-1.24v-1.8c-0.31-0.2-0.51-0.53-0.51-0.9
		c0-0.6,0.5-1.08,1.13-1.08s1.13,0.48,1.13,1.08C171.13,34.74,170.93,35.07,170.62,35.27z M167,26.26c0-1.56,1.35-2.83,3-2.83
		s3,1.27,3,2.83v1.94h-6V26.26z M175.57,28.2v-1.94c0-2.9-2.5-5.26-5.57-5.26s-5.57,2.36-5.57,5.26v1.94H163V39h14V28.2H175.57z"/>
</g>
<g>
	<path fill-rule="evenodd" clip-rule="evenodd" fill="#999999" d="M170.62,55.27v1.8h-1.24v-1.8c-0.31-0.2-0.51-0.53-0.51-0.9
		c0-0.6,0.5-1.08,1.13-1.08s1.13,0.48,1.13,1.08C171.13,54.74,170.93,55.07,170.62,55.27z M167,46.26c0-1.56,1.35-2.83,3-2.83
		s3,1.27,3,2.83v1.94h-6V46.26z M175.57,48.2v-1.94c0-2.9-2.5-5.26-5.57-5.26s-5.57,2.36-5.57,5.26v1.94H163V59h14V48.2H175.57z"/>
</g>
<g>
	<path fill-rule="evenodd" clip-rule="evenodd" fill="#666566" d="M170.62,75.27v1.8h-1.24v-1.8c-0.31-0.2-0.51-0.53-0.51-0.9
		c0-0.6,0.5-1.08,1.13-1.08s1.13,0.48,1.13,1.08C171.13,74.74,170.93,75.07,170.62,75.27z M167,66.26c0-1.56,1.35-2.83,3-2.83
		s3,1.27,3,2.83v1.94h-6V66.26z M175.57,68.2v-1.94c0-2.9-2.5-5.26-5.57-5.26s-5.57,2.36-5.57,5.26v1.94H163V79h14V68.2H175.57z"/>
</g>
<g>
	<path fill-rule="evenodd" clip-rule="evenodd" fill="#369C89" d="M170.62,95.27v1.801h-1.24V95.27
		c-0.31-0.199-0.51-0.529-0.51-0.899c0-0.601,0.5-1.08,1.13-1.08s1.13,0.479,1.13,1.08C171.13,94.74,170.93,95.07,170.62,95.27z
		 M167,86.26c0-1.56,1.35-2.83,3-2.83s3,1.271,3,2.83v1.94h-6V86.26z M175.57,88.2v-1.94c0-2.9-2.5-5.26-5.57-5.26
		s-5.57,2.359-5.57,5.26v1.94H163V99h14V88.2H175.57z"/>
</g>
<g>
	<path fill-rule="evenodd" clip-rule="evenodd" fill="#C75043" d="M170.62,135.27v1.801h-1.24v-1.801
		c-0.31-0.199-0.51-0.529-0.51-0.899c0-0.601,0.5-1.08,1.13-1.08s1.13,0.479,1.13,1.08C171.13,134.74,170.93,135.07,170.62,135.27z
		 M167,126.26c0-1.56,1.35-2.83,3-2.83s3,1.271,3,2.83v1.94h-6V126.26z M175.57,128.2v-1.94c0-2.9-2.5-5.26-5.57-5.26
		s-5.57,2.359-5.57,5.26v1.94H163V139h14v-10.8H175.57z"/>
</g>
<g>
	<path fill-rule="evenodd" clip-rule="evenodd" fill="#1B826B" d="M170.62,115.27v1.801h-1.24v-1.801
		c-0.31-0.199-0.51-0.529-0.51-0.899c0-0.601,0.5-1.08,1.13-1.08s1.13,0.479,1.13,1.08C171.13,114.74,170.93,115.07,170.62,115.27z
		 M167,106.26c0-1.56,1.35-2.83,3-2.83s3,1.271,3,2.83v1.94h-6V106.26z M175.57,108.2v-1.94c0-2.9-2.5-5.26-5.57-5.26
		s-5.57,2.359-5.57,5.26v1.94H163V119h14v-10.8H175.57z"/>
</g>
<g>
	<path fill-rule="evenodd" clip-rule="evenodd" fill="#A13A2D" d="M170.62,155.27v1.801h-1.24v-1.801
		c-0.31-0.199-0.51-0.529-0.51-0.899c0-0.601,0.5-1.08,1.13-1.08s1.13,0.479,1.13,1.08C171.13,154.74,170.93,155.07,170.62,155.27z
		 M167,146.26c0-1.56,1.35-2.83,3-2.83s3,1.271,3,2.83v1.94h-6V146.26z M175.57,148.2v-1.94c0-2.9-2.5-5.26-5.57-5.26
		s-5.57,2.359-5.57,5.26v1.94H163V159h14v-10.8H175.57z"/>
</g>
<g>
	<polygon fill="#1761A4" points="199,4.77 195.23,1 190,6.23 184.77,1 181,4.77 186.23,10 181,15.23 184.77,19 190,13.77 195.23,19 
		199,15.23 193.77,10 	"/>
</g>
<g>
	<polygon fill="#0E4980" points="199,24.77 195.23,21 190,26.23 184.77,21 181,24.77 186.23,30 181,35.23 184.77,39 190,33.77 
		195.23,39 199,35.23 193.77,30 	"/>
</g>
<g>
	<polygon fill="#999999" points="199,44.77 195.23,41 190,46.23 184.77,41 181,44.77 186.23,50 181,55.23 184.77,59 190,53.77 
		195.23,59 199,55.23 193.77,50 	"/>
</g>
<g>
	<polygon fill="#666566" points="199,64.77 195.23,61 190,66.23 184.77,61 181,64.77 186.23,70 181,75.23 184.77,79 190,73.77 
		195.23,79 199,75.23 193.77,70 	"/>
</g>
<g>
	<polygon fill="#369C89" points="199,84.77 195.23,81 190,86.23 184.77,81 181,84.77 186.23,90 181,95.23 184.77,99 190,93.77 
		195.23,99 199,95.23 193.77,90 	"/>
</g>
<g>
	<polygon fill="#C75043" points="199,124.77 195.23,121 190,126.23 184.77,121 181,124.77 186.23,130 181,135.23 184.77,139 
		190,133.77 195.23,139 199,135.23 193.77,130 	"/>
</g>
<g>
	<polygon fill="#1B826B" points="199,104.77 195.23,101 190,106.23 184.77,101 181,104.77 186.23,110 181,115.23 184.77,119 
		190,113.77 195.23,119 199,115.23 193.77,110 	"/>
</g>
<g>
	<polygon fill="#A13A2D" points="199,144.77 195.23,141 190,146.23 184.77,141 181,144.77 186.23,150 181,155.23 184.77,159 
		190,153.77 195.23,159 199,155.23 193.77,150 	"/>
</g>
<path fill-rule="evenodd" clip-rule="evenodd" fill="#1761A4" d="M217.17,7.01L210,10.98l-7.17-3.97c-0.37-0.2-0.5-0.65-0.29-1.01
	c0.21-0.35,0.68-0.47,1.05-0.27L210,9.28l6.41-3.55c0.37-0.2,0.84-0.08,1.05,0.27C217.67,6.36,217.54,6.81,217.17,7.01z M201,4v12
	h18V4H201z"/>
<path fill-rule="evenodd" clip-rule="evenodd" fill="#0E4980" d="M217.17,27.01L210,30.98l-7.17-3.97c-0.37-0.2-0.5-0.65-0.29-1.01
	c0.21-0.35,0.68-0.47,1.05-0.27l6.41,3.55l6.41-3.55c0.37-0.2,0.84-0.08,1.05,0.27C217.67,26.36,217.54,26.81,217.17,27.01z M201,24
	v12h18V24H201z"/>
<path fill-rule="evenodd" clip-rule="evenodd" fill="#999999" d="M217.17,47.01L210,50.98l-7.17-3.97c-0.37-0.2-0.5-0.65-0.29-1.01
	c0.21-0.35,0.68-0.47,1.05-0.27l6.41,3.55l6.41-3.55c0.37-0.2,0.84-0.08,1.05,0.27C217.67,46.36,217.54,46.81,217.17,47.01z M201,44
	v12h18V44H201z"/>
<path fill-rule="evenodd" clip-rule="evenodd" fill="#666566" d="M217.17,67.01L210,70.98l-7.17-3.97c-0.37-0.2-0.5-0.65-0.29-1.01
	c0.21-0.35,0.68-0.47,1.05-0.27l6.41,3.55l6.41-3.55c0.37-0.2,0.84-0.08,1.05,0.27C217.67,66.36,217.54,66.81,217.17,67.01z M201,64
	v12h18V64H201z"/>
<path fill-rule="evenodd" clip-rule="evenodd" fill="#369C89" d="M217.17,87.01L210,90.98l-7.17-3.971
	c-0.37-0.199-0.5-0.65-0.29-1.01c0.21-0.35,0.68-0.471,1.05-0.27l6.41,3.549l6.41-3.549c0.37-0.201,0.84-0.08,1.05,0.27
	C217.67,86.359,217.54,86.811,217.17,87.01z M201,84v12h18V84H201z"/>
<path fill-rule="evenodd" clip-rule="evenodd" fill="#C75043" d="M217.17,127.01L210,130.98l-7.17-3.971
	c-0.37-0.199-0.5-0.65-0.29-1.01c0.21-0.35,0.68-0.471,1.05-0.27l6.41,3.549l6.41-3.549c0.37-0.201,0.84-0.08,1.05,0.27
	C217.67,126.359,217.54,126.811,217.17,127.01z M201,124v12h18v-12H201z"/>
<path fill-rule="evenodd" clip-rule="evenodd" fill="#1B826B" d="M217.17,107.01L210,110.98l-7.17-3.971
	c-0.37-0.199-0.5-0.65-0.29-1.01c0.21-0.35,0.68-0.471,1.05-0.27l6.41,3.549l6.41-3.549c0.37-0.201,0.84-0.08,1.05,0.27
	C217.67,106.359,217.54,106.811,217.17,107.01z M201,104v12h18v-12H201z"/>
<path fill-rule="evenodd" clip-rule="evenodd" fill="#A13A2D" d="M217.17,147.01L210,150.98l-7.17-3.971
	c-0.37-0.199-0.5-0.65-0.29-1.01c0.21-0.35,0.68-0.471,1.05-0.27l6.41,3.549l6.41-3.549c0.37-0.201,0.84-0.08,1.05,0.27
	C217.67,146.359,217.54,146.811,217.17,147.01z M201,144v12h18v-12H201z"/>
<g>
	<path fill-rule="evenodd" clip-rule="evenodd" fill="#1761A4" d="M227.63,11.41c-2.09,0-3.78-1.7-3.78-3.78
		c0-2.09,1.69-3.78,3.78-3.78c2.08,0,3.78,1.69,3.78,3.78C231.41,9.71,229.71,11.41,227.63,11.41z M239,16.99l-5.79-5.8
		c0.66-1.03,1.04-2.25,1.04-3.56c0-3.66-2.971-6.63-6.62-6.63C223.97,1,221,3.97,221,7.63c0,3.65,2.97,6.62,6.63,6.62
		c1.31,0,2.53-0.38,3.56-1.04L236.99,19L239,16.99z"/>
</g>
<g>
	<path fill-rule="evenodd" clip-rule="evenodd" fill="#0E4980" d="M227.63,31.41c-2.09,0-3.78-1.7-3.78-3.78
		c0-2.09,1.69-3.78,3.78-3.78c2.08,0,3.78,1.69,3.78,3.78C231.41,29.71,229.71,31.41,227.63,31.41z M239,36.99l-5.79-5.8
		c0.66-1.03,1.04-2.25,1.04-3.56c0-3.66-2.971-6.63-6.62-6.63c-3.66,0-6.63,2.97-6.63,6.63c0,3.65,2.97,6.62,6.63,6.62
		c1.31,0,2.53-0.38,3.56-1.04L236.99,39L239,36.99z"/>
</g>
<g>
	<path fill-rule="evenodd" clip-rule="evenodd" fill="#999999" d="M227.63,51.41c-2.09,0-3.78-1.7-3.78-3.78
		c0-2.09,1.69-3.78,3.78-3.78c2.08,0,3.78,1.69,3.78,3.78C231.41,49.71,229.71,51.41,227.63,51.41z M239,56.99l-5.79-5.8
		c0.66-1.03,1.04-2.25,1.04-3.56c0-3.66-2.971-6.63-6.62-6.63c-3.66,0-6.63,2.97-6.63,6.63c0,3.65,2.97,6.62,6.63,6.62
		c1.31,0,2.53-0.38,3.56-1.04L236.99,59L239,56.99z"/>
</g>
<g>
	<path fill-rule="evenodd" clip-rule="evenodd" fill="#666566" d="M227.63,71.41c-2.09,0-3.78-1.7-3.78-3.78
		c0-2.09,1.69-3.78,3.78-3.78c2.08,0,3.78,1.69,3.78,3.78C231.41,69.71,229.71,71.41,227.63,71.41z M239,76.99l-5.79-5.8
		c0.66-1.03,1.04-2.25,1.04-3.56c0-3.66-2.971-6.63-6.62-6.63c-3.66,0-6.63,2.97-6.63,6.63c0,3.65,2.97,6.62,6.63,6.62
		c1.31,0,2.53-0.38,3.56-1.04L236.99,79L239,76.99z"/>
</g>
<g>
	<path fill-rule="evenodd" clip-rule="evenodd" fill="#369C89" d="M227.63,91.41c-2.09,0-3.78-1.7-3.78-3.78
		c0-2.09,1.69-3.78,3.78-3.78c2.08,0,3.78,1.69,3.78,3.78C231.41,89.71,229.71,91.41,227.63,91.41z M239,96.99l-5.79-5.801
		c0.66-1.029,1.04-2.25,1.04-3.56c0-3.659-2.971-6.63-6.62-6.63c-3.66,0-6.63,2.971-6.63,6.63c0,3.649,2.97,6.62,6.63,6.62
		c1.31,0,2.53-0.38,3.56-1.04L236.99,99L239,96.99z"/>
</g>
<g>
	<path fill-rule="evenodd" clip-rule="evenodd" fill="#C75043" d="M227.63,131.41c-2.09,0-3.78-1.7-3.78-3.78
		c0-2.09,1.69-3.78,3.78-3.78c2.08,0,3.78,1.69,3.78,3.78C231.41,129.71,229.71,131.41,227.63,131.41z M239,136.99l-5.79-5.801
		c0.66-1.029,1.04-2.25,1.04-3.56c0-3.659-2.971-6.63-6.62-6.63c-3.66,0-6.63,2.971-6.63,6.63c0,3.649,2.97,6.62,6.63,6.62
		c1.31,0,2.53-0.38,3.56-1.04l5.801,5.79L239,136.99z"/>
</g>
<g>
	<path fill-rule="evenodd" clip-rule="evenodd" fill="#1B826B" d="M227.63,111.41c-2.09,0-3.78-1.7-3.78-3.78
		c0-2.09,1.69-3.78,3.78-3.78c2.08,0,3.78,1.69,3.78,3.78C231.41,109.71,229.71,111.41,227.63,111.41z M239,116.99l-5.79-5.801
		c0.66-1.029,1.04-2.25,1.04-3.56c0-3.659-2.971-6.63-6.62-6.63c-3.66,0-6.63,2.971-6.63,6.63c0,3.649,2.97,6.62,6.63,6.62
		c1.31,0,2.53-0.38,3.56-1.04l5.801,5.79L239,116.99z"/>
</g>
<g>
	<path fill-rule="evenodd" clip-rule="evenodd" fill="#A13A2D" d="M227.63,151.41c-2.09,0-3.78-1.7-3.78-3.78
		c0-2.09,1.69-3.78,3.78-3.78c2.08,0,3.78,1.69,3.78,3.78C231.41,149.71,229.71,151.41,227.63,151.41z M239,156.99l-5.79-5.801
		c0.66-1.029,1.04-2.25,1.04-3.56c0-3.659-2.971-6.63-6.62-6.63c-3.66,0-6.63,2.971-6.63,6.63c0,3.649,2.97,6.62,6.63,6.62
		c1.31,0,2.53-0.38,3.56-1.04l5.801,5.79L239,156.99z"/>
</g>
<g>
	<path fill-rule="evenodd" clip-rule="evenodd" fill="#1761A4" d="M257.25,14.62l-2.63,2.63l-0.04,0.03l-4.561-4.56l0.03-0.04
		l0.72-0.71l1.57,1.56l1.189-1.19l-1.559-1.57l0.709-0.72l0.041-0.03l4.559,4.56L257.25,14.62z M247.32,9.95l-0.041,0.03
		l-4.559-4.56l0.029-0.04l2.63-2.63l0.04-0.03l4.561,4.56l-0.03,0.04l-0.72,0.71l-1.57-1.56l-1.189,1.19l1.559,1.57L247.32,9.95z
		 M258.58,13.48l-4.76-4.75c-0.271-0.28-0.65-0.43-1.051-0.43c-0.47,0-0.93,0.2-1.289,0.55l-0.711,0.72l-0.34-0.34l0.721-0.71
		c0.3-0.31,0.49-0.7,0.539-1.1c0.051-0.47-0.1-0.92-0.42-1.24l-4.75-4.75C246.24,1.15,245.87,1,245.471,1
		c-0.471,0-0.941,0.2-1.291,0.55l-2.63,2.63c-0.68,0.68-0.739,1.73-0.13,2.34l4.76,4.75c0.271,0.28,0.65,0.43,1.051,0.43
		c0.47,0,0.93-0.2,1.289-0.55l0.711-0.72l0.34,0.34l-0.721,0.71c-0.3,0.31-0.49,0.7-0.539,1.1c-0.051,0.47,0.1,0.93,0.42,1.24
		l4.75,4.75c0.279,0.28,0.649,0.43,1.049,0.43c0.471,0,0.941-0.2,1.291-0.55l2.63-2.63C259.13,15.14,259.189,14.09,258.58,13.48z"/>
</g>
<g>
	<path fill-rule="evenodd" clip-rule="evenodd" fill="#0E4980" d="M257.25,34.62l-2.63,2.63l-0.04,0.03l-4.561-4.56l0.03-0.04
		l0.72-0.71l1.57,1.56l1.189-1.19l-1.559-1.57l0.709-0.72l0.041-0.03l4.559,4.56L257.25,34.62z M247.32,29.95l-0.041,0.03
		l-4.559-4.56l0.029-0.04l2.63-2.63l0.04-0.03l4.561,4.56l-0.03,0.04l-0.72,0.71l-1.57-1.56l-1.189,1.19l1.559,1.57L247.32,29.95z
		 M258.58,33.48l-4.76-4.75c-0.271-0.28-0.65-0.43-1.051-0.43c-0.47,0-0.93,0.2-1.289,0.55l-0.711,0.72l-0.34-0.34l0.721-0.71
		c0.3-0.31,0.49-0.7,0.539-1.1c0.051-0.47-0.1-0.92-0.42-1.24l-4.75-4.75c-0.279-0.28-0.649-0.43-1.049-0.43
		c-0.471,0-0.941,0.2-1.291,0.55l-2.63,2.63c-0.68,0.68-0.739,1.73-0.13,2.34l4.76,4.75c0.271,0.28,0.65,0.43,1.051,0.43
		c0.47,0,0.93-0.2,1.289-0.55l0.711-0.72l0.34,0.34l-0.721,0.71c-0.3,0.31-0.49,0.7-0.539,1.1c-0.051,0.47,0.1,0.93,0.42,1.24
		l4.75,4.75c0.279,0.28,0.649,0.43,1.049,0.43c0.471,0,0.941-0.2,1.291-0.55l2.63-2.63C259.13,35.14,259.189,34.09,258.58,33.48z"/>
</g>
<g>
	<path fill-rule="evenodd" clip-rule="evenodd" fill="#999999" d="M257.25,54.62l-2.63,2.63l-0.04,0.03l-4.561-4.56l0.03-0.04
		l0.72-0.71l1.57,1.56l1.189-1.19l-1.559-1.57l0.709-0.72l0.041-0.03l4.559,4.56L257.25,54.62z M247.32,49.95l-0.041,0.03
		l-4.559-4.56l0.029-0.04l2.63-2.63l0.04-0.03l4.561,4.56l-0.03,0.04l-0.72,0.71l-1.57-1.56l-1.189,1.19l1.559,1.57L247.32,49.95z
		 M258.58,53.48l-4.76-4.75c-0.271-0.28-0.65-0.43-1.051-0.43c-0.47,0-0.93,0.2-1.289,0.55l-0.711,0.72l-0.34-0.34l0.721-0.71
		c0.3-0.31,0.49-0.7,0.539-1.1c0.051-0.47-0.1-0.92-0.42-1.24l-4.75-4.75c-0.279-0.28-0.649-0.43-1.049-0.43
		c-0.471,0-0.941,0.2-1.291,0.55l-2.63,2.63c-0.68,0.68-0.739,1.73-0.13,2.34l4.76,4.75c0.271,0.28,0.65,0.43,1.051,0.43
		c0.47,0,0.93-0.2,1.289-0.55l0.711-0.72l0.34,0.34l-0.721,0.71c-0.3,0.31-0.49,0.7-0.539,1.1c-0.051,0.47,0.1,0.93,0.42,1.24
		l4.75,4.75c0.279,0.28,0.649,0.43,1.049,0.43c0.471,0,0.941-0.2,1.291-0.55l2.63-2.63C259.13,55.14,259.189,54.09,258.58,53.48z"/>
</g>
<g>
	<path fill-rule="evenodd" clip-rule="evenodd" fill="#666566" d="M257.25,74.62l-2.63,2.63l-0.04,0.03l-4.561-4.56l0.03-0.04
		l0.72-0.71l1.57,1.56l1.189-1.19l-1.559-1.57l0.709-0.72l0.041-0.03l4.559,4.56L257.25,74.62z M247.32,69.95l-0.041,0.03
		l-4.559-4.56l0.029-0.04l2.63-2.63l0.04-0.03l4.561,4.56l-0.03,0.04l-0.72,0.71l-1.57-1.56l-1.189,1.19l1.559,1.57L247.32,69.95z
		 M258.58,73.48l-4.76-4.75c-0.271-0.28-0.65-0.43-1.051-0.43c-0.47,0-0.93,0.2-1.289,0.55l-0.711,0.72l-0.34-0.34l0.721-0.71
		c0.3-0.31,0.49-0.7,0.539-1.1c0.051-0.47-0.1-0.92-0.42-1.24l-4.75-4.75c-0.279-0.28-0.649-0.43-1.049-0.43
		c-0.471,0-0.941,0.2-1.291,0.55l-2.63,2.63c-0.68,0.68-0.739,1.73-0.13,2.34l4.76,4.75c0.271,0.28,0.65,0.43,1.051,0.43
		c0.47,0,0.93-0.2,1.289-0.55l0.711-0.72l0.34,0.34l-0.721,0.71c-0.3,0.31-0.49,0.7-0.539,1.1c-0.051,0.47,0.1,0.93,0.42,1.24
		l4.75,4.75c0.279,0.28,0.649,0.43,1.049,0.43c0.471,0,0.941-0.2,1.291-0.55l2.63-2.63C259.13,75.14,259.189,74.09,258.58,73.48z"/>
</g>
<g>
	<path fill-rule="evenodd" clip-rule="evenodd" fill="#369C89" d="M257.25,94.62l-2.63,2.63l-0.04,0.029l-4.561-4.559l0.03-0.041
		l0.72-0.709l1.57,1.559l1.189-1.189l-1.559-1.57l0.709-0.72l0.041-0.03l4.559,4.561L257.25,94.62z M247.32,89.95l-0.041,0.03
		l-4.559-4.561l0.029-0.04l2.63-2.63l0.04-0.029l4.561,4.559l-0.03,0.041l-0.72,0.709l-1.57-1.559l-1.189,1.189l1.559,1.57
		L247.32,89.95z M258.58,93.48l-4.76-4.75c-0.271-0.28-0.65-0.431-1.051-0.431c-0.47,0-0.93,0.2-1.289,0.55l-0.711,0.721l-0.34-0.34
		l0.721-0.711c0.3-0.31,0.49-0.699,0.539-1.1c0.051-0.47-0.1-0.92-0.42-1.24l-4.75-4.75C246.24,81.15,245.87,81,245.471,81
		c-0.471,0-0.941,0.2-1.291,0.55l-2.63,2.63c-0.68,0.68-0.739,1.73-0.13,2.34l4.76,4.75c0.271,0.28,0.65,0.431,1.051,0.431
		c0.47,0,0.93-0.2,1.289-0.55l0.711-0.721l0.34,0.34l-0.721,0.711c-0.3,0.31-0.49,0.699-0.539,1.1c-0.051,0.47,0.1,0.93,0.42,1.24
		l4.75,4.75c0.279,0.279,0.649,0.43,1.049,0.43c0.471,0,0.941-0.2,1.291-0.55l2.63-2.63C259.13,95.141,259.189,94.09,258.58,93.48z"
		/>
</g>
<g>
	<path fill-rule="evenodd" clip-rule="evenodd" fill="#C75043" d="M257.25,134.62l-2.63,2.63l-0.04,0.029l-4.561-4.559l0.03-0.041
		l0.72-0.709l1.57,1.559l1.189-1.189l-1.559-1.57l0.709-0.72l0.041-0.03l4.559,4.561L257.25,134.62z M247.32,129.95l-0.041,0.03
		l-4.559-4.561l0.029-0.04l2.63-2.63l0.04-0.029l4.561,4.559l-0.03,0.041l-0.72,0.709l-1.57-1.559l-1.189,1.189l1.559,1.57
		L247.32,129.95z M258.58,133.48l-4.76-4.75c-0.271-0.28-0.65-0.431-1.051-0.431c-0.47,0-0.93,0.2-1.289,0.55l-0.711,0.721
		l-0.34-0.34l0.721-0.711c0.3-0.31,0.49-0.699,0.539-1.1c0.051-0.47-0.1-0.92-0.42-1.24l-4.75-4.75
		c-0.279-0.279-0.649-0.43-1.049-0.43c-0.471,0-0.941,0.2-1.291,0.55l-2.63,2.63c-0.68,0.68-0.739,1.73-0.13,2.34l4.76,4.75
		c0.271,0.28,0.65,0.431,1.051,0.431c0.47,0,0.93-0.2,1.289-0.55l0.711-0.721l0.34,0.34l-0.721,0.711
		c-0.3,0.31-0.49,0.699-0.539,1.1c-0.051,0.47,0.1,0.93,0.42,1.24l4.75,4.75c0.279,0.279,0.649,0.43,1.049,0.43
		c0.471,0,0.941-0.2,1.291-0.55l2.63-2.63C259.13,135.141,259.189,134.09,258.58,133.48z"/>
</g>
<g>
	<path fill-rule="evenodd" clip-rule="evenodd" fill="#1B826B" d="M257.25,114.62l-2.63,2.63l-0.04,0.029l-4.561-4.559l0.03-0.041
		l0.72-0.709l1.57,1.559l1.189-1.189l-1.559-1.57l0.709-0.72l0.041-0.03l4.559,4.561L257.25,114.62z M247.32,109.95l-0.041,0.03
		l-4.559-4.561l0.029-0.04l2.63-2.63l0.04-0.029l4.561,4.559l-0.03,0.041l-0.72,0.709l-1.57-1.559l-1.189,1.189l1.559,1.57
		L247.32,109.95z M258.58,113.48l-4.76-4.75c-0.271-0.28-0.65-0.431-1.051-0.431c-0.47,0-0.93,0.2-1.289,0.55l-0.711,0.721
		l-0.34-0.34l0.721-0.711c0.3-0.31,0.49-0.699,0.539-1.1c0.051-0.47-0.1-0.92-0.42-1.24l-4.75-4.75
		c-0.279-0.279-0.649-0.43-1.049-0.43c-0.471,0-0.941,0.2-1.291,0.55l-2.63,2.63c-0.68,0.68-0.739,1.73-0.13,2.34l4.76,4.75
		c0.271,0.28,0.65,0.431,1.051,0.431c0.47,0,0.93-0.2,1.289-0.55l0.711-0.721l0.34,0.34l-0.721,0.711
		c-0.3,0.31-0.49,0.699-0.539,1.1c-0.051,0.47,0.1,0.93,0.42,1.24l4.75,4.75c0.279,0.279,0.649,0.43,1.049,0.43
		c0.471,0,0.941-0.2,1.291-0.55l2.63-2.63C259.13,115.141,259.189,114.09,258.58,113.48z"/>
</g>
<g>
	<path fill-rule="evenodd" clip-rule="evenodd" fill="#A13A2D" d="M257.25,154.62l-2.63,2.63l-0.04,0.029l-4.561-4.559l0.03-0.041
		l0.72-0.709l1.57,1.559l1.189-1.189l-1.559-1.57l0.709-0.72l0.041-0.03l4.559,4.561L257.25,154.62z M247.32,149.95l-0.041,0.03
		l-4.559-4.561l0.029-0.04l2.63-2.63l0.04-0.029l4.561,4.559l-0.03,0.041l-0.72,0.709l-1.57-1.559l-1.189,1.189l1.559,1.57
		L247.32,149.95z M258.58,153.48l-4.76-4.75c-0.271-0.28-0.65-0.431-1.051-0.431c-0.47,0-0.93,0.2-1.289,0.55l-0.711,0.721
		l-0.34-0.34l0.721-0.711c0.3-0.31,0.49-0.699,0.539-1.1c0.051-0.47-0.1-0.92-0.42-1.24l-4.75-4.75
		c-0.279-0.279-0.649-0.43-1.049-0.43c-0.471,0-0.941,0.2-1.291,0.55l-2.63,2.63c-0.68,0.68-0.739,1.73-0.13,2.34l4.76,4.75
		c0.271,0.28,0.65,0.431,1.051,0.431c0.47,0,0.93-0.2,1.289-0.55l0.711-0.721l0.34,0.34l-0.721,0.711
		c-0.3,0.31-0.49,0.699-0.539,1.1c-0.051,0.47,0.1,0.93,0.42,1.24l4.75,4.75c0.279,0.279,0.649,0.43,1.049,0.43
		c0.471,0,0.941-0.2,1.291-0.55l2.63-2.63C259.13,155.141,259.189,154.09,258.58,153.48z"/>
</g>
<g>
	<polygon fill="#1761A4" points="272.08,1.6 272.08,1 267.92,1 267.92,1.6 263,1.6 263,4.02 277,4.02 277,1.6 	"/>
	<path fill-rule="evenodd" clip-rule="evenodd" fill="#1761A4" d="M267.46,8.1h1.33v7.25h-1.33V8.1z M271.21,8.1h1.319v7.25h-1.319
		V8.1z M264.66,19h10.68l0.76-14.23H263.9L264.66,19z"/>
</g>
<g>
	<polygon fill="#0E4980" points="272.08,21.6 272.08,21 267.92,21 267.92,21.6 263,21.6 263,24.02 277,24.02 277,21.6 	"/>
	<path fill-rule="evenodd" clip-rule="evenodd" fill="#0E4980" d="M267.46,28.1h1.33v7.25h-1.33V28.1z M271.21,28.1h1.319v7.25
		h-1.319V28.1z M264.66,39h10.68l0.76-14.23H263.9L264.66,39z"/>
</g>
<g>
	<polygon fill="#999999" points="272.08,41.6 272.08,41 267.92,41 267.92,41.6 263,41.6 263,44.02 277,44.02 277,41.6 	"/>
	<path fill-rule="evenodd" clip-rule="evenodd" fill="#999999" d="M267.46,48.1h1.33v7.25h-1.33V48.1z M271.21,48.1h1.319v7.25
		h-1.319V48.1z M264.66,59h10.68l0.76-14.23H263.9L264.66,59z"/>
</g>
<g>
	<polygon fill="#666566" points="272.08,61.6 272.08,61 267.92,61 267.92,61.6 263,61.6 263,64.02 277,64.02 277,61.6 	"/>
	<path fill-rule="evenodd" clip-rule="evenodd" fill="#666566" d="M267.46,68.1h1.33v7.25h-1.33V68.1z M271.21,68.1h1.319v7.25
		h-1.319V68.1z M264.66,79h10.68l0.76-14.23H263.9L264.66,79z"/>
</g>
<g>
	<polygon fill="#369C89" points="272.08,81.6 272.08,81 267.92,81 267.92,81.6 263,81.6 263,84.02 277,84.02 277,81.6 	"/>
	<path fill-rule="evenodd" clip-rule="evenodd" fill="#369C89" d="M267.46,88.1h1.33v7.25h-1.33V88.1z M271.21,88.1h1.319v7.25
		h-1.319V88.1z M264.66,99h10.68l0.76-14.23H263.9L264.66,99z"/>
</g>
<g>
	<polygon fill="#C75043" points="272.08,121.6 272.08,121 267.92,121 267.92,121.6 263,121.6 263,124.02 277,124.02 277,121.6 	"/>
	<path fill-rule="evenodd" clip-rule="evenodd" fill="#C75043" d="M267.46,128.1h1.33v7.25h-1.33V128.1z M271.21,128.1h1.319v7.25
		h-1.319V128.1z M264.66,139h10.68l0.76-14.23H263.9L264.66,139z"/>
</g>
<g>
	<polygon fill="#1B826B" points="272.08,101.6 272.08,101 267.92,101 267.92,101.6 263,101.6 263,104.02 277,104.02 277,101.6 	"/>
	<path fill-rule="evenodd" clip-rule="evenodd" fill="#1B826B" d="M267.46,108.1h1.33v7.25h-1.33V108.1z M271.21,108.1h1.319v7.25
		h-1.319V108.1z M264.66,119h10.68l0.76-14.23H263.9L264.66,119z"/>
</g>
<g>
	<polygon fill="#A13A2D" points="272.08,141.6 272.08,141 267.92,141 267.92,141.6 263,141.6 263,144.02 277,144.02 277,141.6 	"/>
	<path fill-rule="evenodd" clip-rule="evenodd" fill="#A13A2D" d="M267.46,148.1h1.33v7.25h-1.33V148.1z M271.21,148.1h1.319v7.25
		h-1.319V148.1z M264.66,159h10.68l0.76-14.23H263.9L264.66,159z"/>
</g>
<g>
	<path fill-rule="evenodd" clip-rule="evenodd" fill="#1761A4" d="M290,14c-1.99,0-3.609-1.79-3.609-4S288.01,6,290,6
		s3.609,1.79,3.609,4S291.99,14,290,14z M290,4c-4.971,0-9,6-9,6s4.029,6,9,6s9-6,9-6S294.971,4,290,4z"/>
	<g>
		<path fill="#1761A4" d="M292.641,10.33h-0.801c0-1.33-0.99-2.42-2.189-2.42V7.02C291.3,7.02,292.641,8.51,292.641,10.33z"/>
	</g>
</g>
<g>
	<path fill-rule="evenodd" clip-rule="evenodd" fill="#0E4980" d="M290,34c-1.99,0-3.609-1.79-3.609-4s1.619-4,3.609-4
		s3.609,1.79,3.609,4S291.99,34,290,34z M290,24c-4.971,0-9,6-9,6s4.029,6,9,6s9-6,9-6S294.971,24,290,24z"/>
	<g>
		<path fill="#0E4980" d="M292.641,30.33h-0.801c0-1.33-0.99-2.42-2.189-2.42v-0.89C291.3,27.02,292.641,28.51,292.641,30.33z"/>
	</g>
</g>
<g>
	<path fill-rule="evenodd" clip-rule="evenodd" fill="#999999" d="M290,54c-1.99,0-3.609-1.79-3.609-4s1.619-4,3.609-4
		s3.609,1.79,3.609,4S291.99,54,290,54z M290,44c-4.971,0-9,6-9,6s4.029,6,9,6s9-6,9-6S294.971,44,290,44z"/>
	<g>
		<path fill="#999999" d="M292.641,50.33h-0.801c0-1.33-0.99-2.42-2.189-2.42v-0.89C291.3,47.02,292.641,48.51,292.641,50.33z"/>
	</g>
</g>
<g>
	<path fill-rule="evenodd" clip-rule="evenodd" fill="#666566" d="M290,74c-1.99,0-3.609-1.79-3.609-4s1.619-4,3.609-4
		s3.609,1.79,3.609,4S291.99,74,290,74z M290,64c-4.971,0-9,6-9,6s4.029,6,9,6s9-6,9-6S294.971,64,290,64z"/>
	<g>
		<path fill="#666566" d="M292.641,70.33h-0.801c0-1.33-0.99-2.42-2.189-2.42v-0.89C291.3,67.02,292.641,68.51,292.641,70.33z"/>
	</g>
</g>
<g>
	<path fill-rule="evenodd" clip-rule="evenodd" fill="#369C89" d="M290,94c-1.99,0-3.609-1.79-3.609-4s1.619-4,3.609-4
		s3.609,1.79,3.609,4S291.99,94,290,94z M290,84c-4.971,0-9,6-9,6s4.029,6,9,6s9-6,9-6S294.971,84,290,84z"/>
	<g>
		<path fill="#369C89" d="M292.641,90.33h-0.801c0-1.33-0.99-2.42-2.189-2.42V87.02C291.3,87.02,292.641,88.51,292.641,90.33z"/>
	</g>
</g>
<g>
	<path fill-rule="evenodd" clip-rule="evenodd" fill="#C75043" d="M290,134c-1.99,0-3.609-1.79-3.609-4s1.619-4,3.609-4
		s3.609,1.79,3.609,4S291.99,134,290,134z M290,124c-4.971,0-9,6-9,6s4.029,6,9,6s9-6,9-6S294.971,124,290,124z"/>
	<g>
		<path fill="#C75043" d="M292.641,130.33h-0.801c0-1.33-0.99-2.42-2.189-2.42v-0.891C291.3,127.02,292.641,128.51,292.641,130.33z"
			/>
	</g>
</g>
<g>
	<path fill-rule="evenodd" clip-rule="evenodd" fill="#1B826B" d="M290,114c-1.99,0-3.609-1.79-3.609-4s1.619-4,3.609-4
		s3.609,1.79,3.609,4S291.99,114,290,114z M290,104c-4.971,0-9,6-9,6s4.029,6,9,6s9-6,9-6S294.971,104,290,104z"/>
	<g>
		<path fill="#1B826B" d="M292.641,110.33h-0.801c0-1.33-0.99-2.42-2.189-2.42v-0.891C291.3,107.02,292.641,108.51,292.641,110.33z"
			/>
	</g>
</g>
<g>
	<path fill-rule="evenodd" clip-rule="evenodd" fill="#A13A2D" d="M290,154c-1.99,0-3.609-1.79-3.609-4s1.619-4,3.609-4
		s3.609,1.79,3.609,4S291.99,154,290,154z M290,144c-4.971,0-9,6-9,6s4.029,6,9,6s9-6,9-6S294.971,144,290,144z"/>
	<g>
		<path fill="#A13A2D" d="M292.641,150.33h-0.801c0-1.33-0.99-2.42-2.189-2.42v-0.891C291.3,147.02,292.641,148.51,292.641,150.33z"
			/>
	</g>
</g>
<g>
	<g>
		<path fill="#1761A4" d="M301,3v11.71h11.07c-0.08-0.33-0.12-0.67-0.12-1.02c0-0.94,0.3-1.82,0.85-2.54l-2.81-1.71l-0.77,0.47
			c-0.07,0.04-0.15,0.07-0.24,0.07c-0.08,0-0.16-0.03-0.24-0.07l-0.76-0.47l-4.78,2.91c-0.08,0.05-0.16,0.07-0.24,0.07
			c-0.17,0-0.33-0.09-0.42-0.26c-0.13-0.24-0.05-0.55,0.181-0.69l4.289-2.62l-4.289-2.61c-0.23-0.14-0.311-0.45-0.181-0.69
			c0.13-0.25,0.431-0.33,0.66-0.19l5.78,3.52l5.789-3.52c0.23-0.14,0.53-0.06,0.66,0.19c0.131,0.24,0.051,0.55-0.18,0.69l-4.29,2.61
			l2.56,1.56c0.66-0.51,1.451-0.79,2.28-0.79c0.41,0,0.8,0.06,1.171,0.19V3H301z"/>
	</g>
	<path fill-rule="evenodd" clip-rule="evenodd" fill="#1761A4" d="M316.43,15.57h-1.039v-1.29h-1.16v-1.1h1.16v-1.3h1.039v1.3h1.291
		v1.1h-1.291V15.57z M318.08,11.35c-1.221-1.29-3.2-1.29-4.42,0c-1.221,1.29-1.221,3.39,0,4.68c1.22,1.29,3.199,1.29,4.42,0
		C319.311,14.74,319.311,12.64,318.08,11.35z"/>
</g>
<g>
	<g>
		<path fill="#0E4980" d="M301,23v11.71h11.07c-0.08-0.33-0.12-0.67-0.12-1.02c0-0.94,0.3-1.82,0.85-2.54l-2.81-1.71l-0.77,0.47
			c-0.07,0.04-0.15,0.07-0.24,0.07c-0.08,0-0.16-0.03-0.24-0.07l-0.76-0.47l-4.78,2.91c-0.08,0.05-0.16,0.07-0.24,0.07
			c-0.17,0-0.33-0.09-0.42-0.26c-0.13-0.24-0.05-0.55,0.181-0.69l4.289-2.62l-4.289-2.61c-0.23-0.14-0.311-0.45-0.181-0.69
			c0.13-0.25,0.431-0.33,0.66-0.19l5.78,3.52l5.789-3.52c0.23-0.14,0.53-0.06,0.66,0.19c0.131,0.24,0.051,0.55-0.18,0.69l-4.29,2.61
			l2.56,1.56c0.66-0.51,1.451-0.79,2.28-0.79c0.41,0,0.8,0.06,1.171,0.19V23H301z"/>
	</g>
	<path fill-rule="evenodd" clip-rule="evenodd" fill="#0E4980" d="M316.43,35.57h-1.039v-1.29h-1.16v-1.1h1.16v-1.3h1.039v1.3h1.291
		v1.1h-1.291V35.57z M318.08,31.35c-1.221-1.29-3.2-1.29-4.42,0c-1.221,1.29-1.221,3.39,0,4.68c1.22,1.29,3.199,1.29,4.42,0
		C319.311,34.74,319.311,32.64,318.08,31.35z"/>
</g>
<g>
	<g>
		<path fill="#999999" d="M301,43v11.71h11.07c-0.08-0.33-0.12-0.67-0.12-1.02c0-0.94,0.3-1.82,0.85-2.54l-2.81-1.71l-0.77,0.47
			c-0.07,0.04-0.15,0.07-0.24,0.07c-0.08,0-0.16-0.03-0.24-0.07l-0.76-0.47l-4.78,2.91c-0.08,0.05-0.16,0.07-0.24,0.07
			c-0.17,0-0.33-0.09-0.42-0.26c-0.13-0.24-0.05-0.55,0.181-0.69l4.289-2.62l-4.289-2.61c-0.23-0.14-0.311-0.45-0.181-0.69
			c0.13-0.25,0.431-0.33,0.66-0.19l5.78,3.52l5.789-3.52c0.23-0.14,0.53-0.06,0.66,0.19c0.131,0.24,0.051,0.55-0.18,0.69l-4.29,2.61
			l2.56,1.56c0.66-0.51,1.451-0.79,2.28-0.79c0.41,0,0.8,0.06,1.171,0.19V43H301z"/>
	</g>
	<path fill-rule="evenodd" clip-rule="evenodd" fill="#999999" d="M316.43,55.57h-1.039v-1.29h-1.16v-1.1h1.16v-1.3h1.039v1.3h1.291
		v1.1h-1.291V55.57z M318.08,51.35c-1.221-1.29-3.2-1.29-4.42,0c-1.221,1.29-1.221,3.39,0,4.68c1.22,1.29,3.199,1.29,4.42,0
		C319.311,54.74,319.311,52.64,318.08,51.35z"/>
</g>
<g>
	<g>
		<path fill="#666566" d="M301,63v11.71h11.07c-0.08-0.33-0.12-0.67-0.12-1.02c0-0.94,0.3-1.82,0.85-2.54l-2.81-1.71l-0.77,0.47
			c-0.07,0.04-0.15,0.07-0.24,0.07c-0.08,0-0.16-0.03-0.24-0.07l-0.76-0.47l-4.78,2.91c-0.08,0.05-0.16,0.07-0.24,0.07
			c-0.17,0-0.33-0.09-0.42-0.26c-0.13-0.24-0.05-0.55,0.181-0.69l4.289-2.62l-4.289-2.61c-0.23-0.14-0.311-0.45-0.181-0.69
			c0.13-0.25,0.431-0.33,0.66-0.19l5.78,3.52l5.789-3.52c0.23-0.14,0.53-0.06,0.66,0.19c0.131,0.24,0.051,0.55-0.18,0.69l-4.29,2.61
			l2.56,1.56c0.66-0.51,1.451-0.79,2.28-0.79c0.41,0,0.8,0.06,1.171,0.19V63H301z"/>
	</g>
	<path fill-rule="evenodd" clip-rule="evenodd" fill="#666566" d="M316.43,75.57h-1.039v-1.29h-1.16v-1.1h1.16v-1.3h1.039v1.3h1.291
		v1.1h-1.291V75.57z M318.08,71.35c-1.221-1.29-3.2-1.29-4.42,0c-1.221,1.29-1.221,3.39,0,4.68c1.22,1.29,3.199,1.29,4.42,0
		C319.311,74.74,319.311,72.64,318.08,71.35z"/>
</g>
<g>
	<g>
		<path fill="#369C89" d="M301,83v11.71h11.07c-0.08-0.33-0.12-0.67-0.12-1.021c0-0.939,0.3-1.819,0.85-2.539l-2.81-1.711
			l-0.77,0.471c-0.07,0.04-0.15,0.07-0.24,0.07c-0.08,0-0.16-0.03-0.24-0.07l-0.76-0.471l-4.78,2.91
			c-0.08,0.051-0.16,0.07-0.24,0.07c-0.17,0-0.33-0.09-0.42-0.26c-0.13-0.24-0.05-0.551,0.181-0.689l4.289-2.621l-4.289-2.609
			c-0.23-0.141-0.311-0.45-0.181-0.69c0.13-0.25,0.431-0.329,0.66-0.19l5.78,3.521l5.789-3.521c0.23-0.139,0.53-0.06,0.66,0.19
			c0.131,0.24,0.051,0.55-0.18,0.69l-4.29,2.609l2.56,1.561c0.66-0.51,1.451-0.79,2.28-0.79c0.41,0,0.8,0.06,1.171,0.19V83H301z"/>
	</g>
	<path fill-rule="evenodd" clip-rule="evenodd" fill="#369C89" d="M316.43,95.57h-1.039v-1.291h-1.16v-1.1h1.16v-1.3h1.039v1.3
		h1.291v1.1h-1.291V95.57z M318.08,91.35c-1.221-1.289-3.2-1.289-4.42,0c-1.221,1.291-1.221,3.391,0,4.68
		c1.22,1.291,3.199,1.291,4.42,0C319.311,94.74,319.311,92.641,318.08,91.35z"/>
</g>
<g>
	<g>
		<path fill="#C75043" d="M301,123v11.71h11.07c-0.08-0.33-0.12-0.67-0.12-1.021c0-0.939,0.3-1.819,0.85-2.539l-2.81-1.711
			l-0.77,0.471c-0.07,0.04-0.15,0.07-0.24,0.07c-0.08,0-0.16-0.03-0.24-0.07l-0.76-0.471l-4.78,2.91
			c-0.08,0.051-0.16,0.07-0.24,0.07c-0.17,0-0.33-0.09-0.42-0.26c-0.13-0.24-0.05-0.551,0.181-0.689l4.289-2.621l-4.289-2.609
			c-0.23-0.141-0.311-0.45-0.181-0.69c0.13-0.25,0.431-0.329,0.66-0.19l5.78,3.521l5.789-3.521c0.23-0.139,0.53-0.06,0.66,0.19
			c0.131,0.24,0.051,0.55-0.18,0.69l-4.29,2.609l2.56,1.561c0.66-0.51,1.451-0.79,2.28-0.79c0.41,0,0.8,0.06,1.171,0.19V123H301z"/>
	</g>
	<path fill-rule="evenodd" clip-rule="evenodd" fill="#C75043" d="M316.43,135.57h-1.039v-1.291h-1.16v-1.1h1.16v-1.3h1.039v1.3
		h1.291v1.1h-1.291V135.57z M318.08,131.35c-1.221-1.289-3.2-1.289-4.42,0c-1.221,1.291-1.221,3.391,0,4.68
		c1.22,1.291,3.199,1.291,4.42,0C319.311,134.74,319.311,132.641,318.08,131.35z"/>
</g>
<g>
	<g>
		<path fill="#1B826B" d="M301,103v11.71h11.07c-0.08-0.33-0.12-0.67-0.12-1.021c0-0.939,0.3-1.819,0.85-2.539l-2.81-1.711
			l-0.77,0.471c-0.07,0.04-0.15,0.07-0.24,0.07c-0.08,0-0.16-0.03-0.24-0.07l-0.76-0.471l-4.78,2.91
			c-0.08,0.051-0.16,0.07-0.24,0.07c-0.17,0-0.33-0.09-0.42-0.26c-0.13-0.24-0.05-0.551,0.181-0.689l4.289-2.621l-4.289-2.609
			c-0.23-0.141-0.311-0.45-0.181-0.69c0.13-0.25,0.431-0.329,0.66-0.19l5.78,3.521l5.789-3.521c0.23-0.139,0.53-0.06,0.66,0.19
			c0.131,0.24,0.051,0.55-0.18,0.69l-4.29,2.609l2.56,1.561c0.66-0.51,1.451-0.79,2.28-0.79c0.41,0,0.8,0.06,1.171,0.19V103H301z"/>
	</g>
	<path fill-rule="evenodd" clip-rule="evenodd" fill="#1B826B" d="M316.43,115.57h-1.039v-1.291h-1.16v-1.1h1.16v-1.3h1.039v1.3
		h1.291v1.1h-1.291V115.57z M318.08,111.35c-1.221-1.289-3.2-1.289-4.42,0c-1.221,1.291-1.221,3.391,0,4.68
		c1.22,1.291,3.199,1.291,4.42,0C319.311,114.74,319.311,112.641,318.08,111.35z"/>
</g>
<g>
	<g>
		<path fill="#A13A2D" d="M301,143v11.71h11.07c-0.08-0.33-0.12-0.67-0.12-1.021c0-0.939,0.3-1.819,0.85-2.539l-2.81-1.711
			l-0.77,0.471c-0.07,0.04-0.15,0.07-0.24,0.07c-0.08,0-0.16-0.03-0.24-0.07l-0.76-0.471l-4.78,2.91
			c-0.08,0.051-0.16,0.07-0.24,0.07c-0.17,0-0.33-0.09-0.42-0.26c-0.13-0.24-0.05-0.551,0.181-0.689l4.289-2.621l-4.289-2.609
			c-0.23-0.141-0.311-0.45-0.181-0.69c0.13-0.25,0.431-0.329,0.66-0.19l5.78,3.521l5.789-3.521c0.23-0.139,0.53-0.06,0.66,0.19
			c0.131,0.24,0.051,0.55-0.18,0.69l-4.29,2.609l2.56,1.561c0.66-0.51,1.451-0.79,2.28-0.79c0.41,0,0.8,0.06,1.171,0.19V143H301z"/>
	</g>
	<path fill-rule="evenodd" clip-rule="evenodd" fill="#A13A2D" d="M316.43,155.57h-1.039v-1.291h-1.16v-1.1h1.16v-1.3h1.039v1.3
		h1.291v1.1h-1.291V155.57z M318.08,151.35c-1.221-1.289-3.2-1.289-4.42,0c-1.221,1.291-1.221,3.391,0,4.68
		c1.22,1.291,3.199,1.291,4.42,0C319.311,154.74,319.311,152.641,318.08,151.35z"/>
</g>
<g>
	<polygon fill="#1761A4" points="332.54,1 323.75,1 323.75,12.61 329.57,12.61 329.57,16.98 323.75,16.98 323.75,19 337,19 
		337,5.44 332.54,5.44 	"/>
	<rect x="322" y="13.43" fill="#1761A4" width="6.75" height="2.73"/>
</g>
<g>
	<polygon fill="#0E4980" points="332.54,21 323.75,21 323.75,32.61 329.57,32.61 329.57,36.98 323.75,36.98 323.75,39 337,39 
		337,25.44 332.54,25.44 	"/>
	<rect x="322" y="33.43" fill="#0E4980" width="6.75" height="2.73"/>
</g>
<g>
	<polygon fill="#999999" points="332.54,41 323.75,41 323.75,52.61 329.57,52.61 329.57,56.98 323.75,56.98 323.75,59 337,59 
		337,45.44 332.54,45.44 	"/>
	<rect x="322" y="53.43" fill="#999999" width="6.75" height="2.73"/>
</g>
<g>
	<polygon fill="#666566" points="332.54,61 323.75,61 323.75,72.61 329.57,72.61 329.57,76.98 323.75,76.98 323.75,79 337,79 
		337,65.44 332.54,65.44 	"/>
	<rect x="322" y="73.43" fill="#666566" width="6.75" height="2.73"/>
</g>
<g>
	<polygon fill="#369C89" points="332.54,81 323.75,81 323.75,92.609 329.57,92.609 329.57,96.98 323.75,96.98 323.75,99 337,99 
		337,85.439 332.54,85.439 	"/>
	<rect x="322" y="93.43" fill="#369C89" width="6.75" height="2.73"/>
</g>
<g>
	<polygon fill="#C75043" points="332.54,121 323.75,121 323.75,132.609 329.57,132.609 329.57,136.98 323.75,136.98 323.75,139 
		337,139 337,125.439 332.54,125.439 	"/>
	<rect x="322" y="133.43" fill="#C75043" width="6.75" height="2.73"/>
</g>
<g>
	<polygon fill="#1B826B" points="332.54,101 323.75,101 323.75,112.609 329.57,112.609 329.57,116.98 323.75,116.98 323.75,119 
		337,119 337,105.439 332.54,105.439 	"/>
	<rect x="322" y="113.43" fill="#1B826B" width="6.75" height="2.73"/>
</g>
<g>
	<polygon fill="#A13A2D" points="332.54,141 323.75,141 323.75,152.609 329.57,152.609 329.57,156.98 323.75,156.98 323.75,159 
		337,159 337,145.439 332.54,145.439 	"/>
	<rect x="322" y="153.43" fill="#A13A2D" width="6.75" height="2.73"/>
</g>
<g>
	<g>
		<g>
			<polygon fill="#1761A4" points="353.07,1 345.32,1 345.32,16.72 357,16.72 357,4.88 353.07,4.88 			"/>
		</g>
		<g>
			<polygon fill="#1761A4" points="353.83,1 353.83,4.12 357,4.12 			"/>
		</g>
	</g>
	<g>
		<polygon fill="#1761A4" points="354.68,17.29 354.68,18.04 343.971,18.04 343.971,3.29 344.721,3.29 344.721,2.33 343,2.33 
			343,19 355.65,19 355.65,17.29 		"/>
	</g>
</g>
<g>
	<g>
		<g>
			<polygon fill="#0E4980" points="353.07,21 345.32,21 345.32,36.72 357,36.72 357,24.88 353.07,24.88 			"/>
		</g>
		<g>
			<polygon fill="#0E4980" points="353.83,21 353.83,24.12 357,24.12 			"/>
		</g>
	</g>
	<g>
		<polygon fill="#0E4980" points="354.68,37.29 354.68,38.04 343.971,38.04 343.971,23.29 344.721,23.29 344.721,22.33 343,22.33 
			343,39 355.65,39 355.65,37.29 		"/>
	</g>
</g>
<g>
	<g>
		<g>
			<polygon fill="#999999" points="353.07,41 345.32,41 345.32,56.72 357,56.72 357,44.88 353.07,44.88 			"/>
		</g>
		<g>
			<polygon fill="#999999" points="353.83,41 353.83,44.12 357,44.12 			"/>
		</g>
	</g>
	<g>
		<polygon fill="#999999" points="354.68,57.29 354.68,58.04 343.971,58.04 343.971,43.29 344.721,43.29 344.721,42.33 343,42.33 
			343,59 355.65,59 355.65,57.29 		"/>
	</g>
</g>
<g>
	<g>
		<g>
			<polygon fill="#666566" points="353.07,61 345.32,61 345.32,76.72 357,76.72 357,64.88 353.07,64.88 			"/>
		</g>
		<g>
			<polygon fill="#666566" points="353.83,61 353.83,64.12 357,64.12 			"/>
		</g>
	</g>
	<g>
		<polygon fill="#666566" points="354.68,77.29 354.68,78.04 343.971,78.04 343.971,63.29 344.721,63.29 344.721,62.33 343,62.33 
			343,79 355.65,79 355.65,77.29 		"/>
	</g>
</g>
<g>
	<g>
		<g>
			<polygon fill="#369C89" points="353.07,81 345.32,81 345.32,96.721 357,96.721 357,84.88 353.07,84.88 			"/>
		</g>
		<g>
			<polygon fill="#369C89" points="353.83,81 353.83,84.12 357,84.12 			"/>
		</g>
	</g>
	<g>
		<polygon fill="#369C89" points="354.68,97.29 354.68,98.04 343.971,98.04 343.971,83.29 344.721,83.29 344.721,82.33 343,82.33 
			343,99 355.65,99 355.65,97.29 		"/>
	</g>
</g>
<g>
	<g>
		<g>
			<polygon fill="#C75043" points="353.07,121 345.32,121 345.32,136.721 357,136.721 357,124.88 353.07,124.88 			"/>
		</g>
		<g>
			<polygon fill="#C75043" points="353.83,121 353.83,124.12 357,124.12 			"/>
		</g>
	</g>
	<g>
		<polygon fill="#C75043" points="354.68,137.29 354.68,138.04 343.971,138.04 343.971,123.29 344.721,123.29 344.721,122.33 
			343,122.33 343,139 355.65,139 355.65,137.29 		"/>
	</g>
</g>
<g>
	<g>
		<g>
			<polygon fill="#1B826B" points="353.07,101 345.32,101 345.32,116.721 357,116.721 357,104.88 353.07,104.88 			"/>
		</g>
		<g>
			<polygon fill="#1B826B" points="353.83,101 353.83,104.12 357,104.12 			"/>
		</g>
	</g>
	<g>
		<polygon fill="#1B826B" points="354.68,117.29 354.68,118.04 343.971,118.04 343.971,103.29 344.721,103.29 344.721,102.33 
			343,102.33 343,119 355.65,119 355.65,117.29 		"/>
	</g>
</g>
<g>
	<g>
		<g>
			<polygon fill="#A13A2D" points="353.07,141 345.32,141 345.32,156.721 357,156.721 357,144.88 353.07,144.88 			"/>
		</g>
		<g>
			<polygon fill="#A13A2D" points="353.83,141 353.83,144.12 357,144.12 			"/>
		</g>
	</g>
	<g>
		<polygon fill="#A13A2D" points="354.68,157.29 354.68,158.04 343.971,158.04 343.971,143.29 344.721,143.29 344.721,142.33 
			343,142.33 343,159 355.65,159 355.65,157.29 		"/>
	</g>
</g>
<g>
	<path fill-rule="evenodd" clip-rule="evenodd" fill="#1761A4" d="M375.41,11.41h-10.82V8.59h10.82V11.41z M370,1
		c-4.971,0-9,4.03-9,9s4.029,9,9,9s9-4.03,9-9S374.971,1,370,1z"/>
</g>
<g>
	<path fill-rule="evenodd" clip-rule="evenodd" fill="#0E4980" d="M375.41,31.41h-10.82v-2.82h10.82V31.41z M370,21
		c-4.971,0-9,4.03-9,9s4.029,9,9,9s9-4.03,9-9S374.971,21,370,21z"/>
</g>
<g>
	<path fill-rule="evenodd" clip-rule="evenodd" fill="#999999" d="M375.41,51.41h-10.82v-2.82h10.82V51.41z M370,41
		c-4.971,0-9,4.03-9,9s4.029,9,9,9s9-4.03,9-9S374.971,41,370,41z"/>
</g>
<g>
	<path fill-rule="evenodd" clip-rule="evenodd" fill="#666566" d="M375.41,71.41h-10.82v-2.82h10.82V71.41z M370,61
		c-4.971,0-9,4.03-9,9s4.029,9,9,9s9-4.03,9-9S374.971,61,370,61z"/>
</g>
<g>
	<path fill-rule="evenodd" clip-rule="evenodd" fill="#369C89" d="M375.41,91.41h-10.82v-2.82h10.82V91.41z M370,81
		c-4.971,0-9,4.029-9,9s4.029,9,9,9s9-4.029,9-9S374.971,81,370,81z"/>
</g>
<g>
	<path fill-rule="evenodd" clip-rule="evenodd" fill="#C75043" d="M375.41,131.41h-10.82v-2.82h10.82V131.41z M370,121
		c-4.971,0-9,4.029-9,9s4.029,9,9,9s9-4.029,9-9S374.971,121,370,121z"/>
</g>
<g>
	<path fill-rule="evenodd" clip-rule="evenodd" fill="#1B826B" d="M375.41,111.41h-10.82v-2.82h10.82V111.41z M370,101
		c-4.971,0-9,4.029-9,9s4.029,9,9,9s9-4.029,9-9S374.971,101,370,101z"/>
</g>
<g>
	<path fill-rule="evenodd" clip-rule="evenodd" fill="#A13A2D" d="M375.41,151.41h-10.82v-2.82h10.82V151.41z M370,141
		c-4.971,0-9,4.029-9,9s4.029,9,9,9s9-4.029,9-9S374.971,141,370,141z"/>
</g>
<g>
	<path fill-rule="evenodd" clip-rule="evenodd" fill="#1761A4" d="M386.62,15.87h6.76v1.06h-6.76V15.87z M386.62,13.73h6.76v1.07
		h-6.76V13.73z M385.5,14.8V18h9v-3.2v-2.13h-9V14.8z"/>
	<polygon fill="#1761A4" points="394.5,5.2 394.5,2 385.5,2 385.5,5.2 385.5,7.33 394.5,7.33 	"/>
	<path fill="#1761A4" d="M396.75,5.2h-1.13v2.13V8.4h-11.24V7.33V5.2h-1.13c-1.13,0-2.25,1.07-2.25,2.13v5.34
		c0,1.06,1.12,2.13,2.25,2.13h1.13v-2.13V11.6h11.24v1.07v2.13h1.13c1.13,0,2.25-1.07,2.25-2.13V7.33
		C399,6.27,397.88,5.2,396.75,5.2z"/>
</g>
<g>
	<path fill-rule="evenodd" clip-rule="evenodd" fill="#0E4980" d="M386.62,35.87h6.76v1.06h-6.76V35.87z M386.62,33.73h6.76v1.07
		h-6.76V33.73z M385.5,34.8V38h9v-3.2v-2.13h-9V34.8z"/>
	<polygon fill="#0E4980" points="394.5,25.2 394.5,22 385.5,22 385.5,25.2 385.5,27.33 394.5,27.33 	"/>
	<path fill="#0E4980" d="M396.75,25.2h-1.13v2.13v1.07h-11.24v-1.07V25.2h-1.13c-1.13,0-2.25,1.07-2.25,2.13v5.34
		c0,1.06,1.12,2.13,2.25,2.13h1.13v-2.13V31.6h11.24v1.07v2.13h1.13c1.13,0,2.25-1.07,2.25-2.13v-5.34
		C399,26.27,397.88,25.2,396.75,25.2z"/>
</g>
<g>
	<path fill-rule="evenodd" clip-rule="evenodd" fill="#999999" d="M386.62,55.87h6.76v1.06h-6.76V55.87z M386.62,53.73h6.76v1.07
		h-6.76V53.73z M385.5,54.8V58h9v-3.2v-2.13h-9V54.8z"/>
	<polygon fill="#999999" points="394.5,45.2 394.5,42 385.5,42 385.5,45.2 385.5,47.33 394.5,47.33 	"/>
	<path fill="#999999" d="M396.75,45.2h-1.13v2.13v1.07h-11.24v-1.07V45.2h-1.13c-1.13,0-2.25,1.07-2.25,2.13v5.34
		c0,1.06,1.12,2.13,2.25,2.13h1.13v-2.13V51.6h11.24v1.07v2.13h1.13c1.13,0,2.25-1.07,2.25-2.13v-5.34
		C399,46.27,397.88,45.2,396.75,45.2z"/>
</g>
<g>
	<path fill-rule="evenodd" clip-rule="evenodd" fill="#666566" d="M386.62,75.87h6.76v1.06h-6.76V75.87z M386.62,73.73h6.76v1.07
		h-6.76V73.73z M385.5,74.8V78h9v-3.2v-2.13h-9V74.8z"/>
	<polygon fill="#666566" points="394.5,65.2 394.5,62 385.5,62 385.5,65.2 385.5,67.33 394.5,67.33 	"/>
	<path fill="#666566" d="M396.75,65.2h-1.13v2.13v1.07h-11.24v-1.07V65.2h-1.13c-1.13,0-2.25,1.07-2.25,2.13v5.34
		c0,1.06,1.12,2.13,2.25,2.13h1.13v-2.13V71.6h11.24v1.07v2.13h1.13c1.13,0,2.25-1.07,2.25-2.13v-5.34
		C399,66.27,397.88,65.2,396.75,65.2z"/>
</g>
<g>
	<path fill-rule="evenodd" clip-rule="evenodd" fill="#369C89" d="M386.62,95.87h6.76v1.06h-6.76V95.87z M386.62,93.73h6.76V94.8
		h-6.76V93.73z M385.5,94.8V98h9v-3.2v-2.13h-9V94.8z"/>
	<polygon fill="#369C89" points="394.5,85.2 394.5,82 385.5,82 385.5,85.2 385.5,87.33 394.5,87.33 	"/>
	<path fill="#369C89" d="M396.75,85.2h-1.13v2.13v1.07h-11.24v-1.07V85.2h-1.13c-1.13,0-2.25,1.069-2.25,2.13v5.34
		c0,1.061,1.12,2.13,2.25,2.13h1.13v-2.13V91.6h11.24v1.07v2.13h1.13c1.13,0,2.25-1.069,2.25-2.13v-5.34
		C399,86.27,397.88,85.2,396.75,85.2z"/>
</g>
<g>
	<path fill-rule="evenodd" clip-rule="evenodd" fill="#C75043" d="M386.62,135.87h6.76v1.06h-6.76V135.87z M386.62,133.73h6.76
		v1.069h-6.76V133.73z M385.5,134.8v3.2h9v-3.2v-2.13h-9V134.8z"/>
	<polygon fill="#C75043" points="394.5,125.2 394.5,122 385.5,122 385.5,125.2 385.5,127.33 394.5,127.33 	"/>
	<path fill="#C75043" d="M396.75,125.2h-1.13v2.13v1.07h-11.24v-1.07v-2.13h-1.13c-1.13,0-2.25,1.069-2.25,2.13v5.34
		c0,1.061,1.12,2.13,2.25,2.13h1.13v-2.13v-1.07h11.24v1.07v2.13h1.13c1.13,0,2.25-1.069,2.25-2.13v-5.34
		C399,126.27,397.88,125.2,396.75,125.2z"/>
</g>
<g>
	<path fill-rule="evenodd" clip-rule="evenodd" fill="#1B826B" d="M386.62,115.87h6.76v1.06h-6.76V115.87z M386.62,113.73h6.76
		v1.069h-6.76V113.73z M385.5,114.8v3.2h9v-3.2v-2.13h-9V114.8z"/>
	<polygon fill="#1B826B" points="394.5,105.2 394.5,102 385.5,102 385.5,105.2 385.5,107.33 394.5,107.33 	"/>
	<path fill="#1B826B" d="M396.75,105.2h-1.13v2.13v1.07h-11.24v-1.07v-2.13h-1.13c-1.13,0-2.25,1.069-2.25,2.13v5.34
		c0,1.061,1.12,2.13,2.25,2.13h1.13v-2.13v-1.07h11.24v1.07v2.13h1.13c1.13,0,2.25-1.069,2.25-2.13v-5.34
		C399,106.27,397.88,105.2,396.75,105.2z"/>
</g>
<g>
	<path fill-rule="evenodd" clip-rule="evenodd" fill="#A13A2D" d="M386.62,155.87h6.76v1.06h-6.76V155.87z M386.62,153.73h6.76
		v1.069h-6.76V153.73z M385.5,154.8v3.2h9v-3.2v-2.13h-9V154.8z"/>
	<polygon fill="#A13A2D" points="394.5,145.2 394.5,142 385.5,142 385.5,145.2 385.5,147.33 394.5,147.33 	"/>
	<path fill="#A13A2D" d="M396.75,145.2h-1.13v2.13v1.07h-11.24v-1.07v-2.13h-1.13c-1.13,0-2.25,1.069-2.25,2.13v5.34
		c0,1.061,1.12,2.13,2.25,2.13h1.13v-2.13v-1.07h11.24v1.07v2.13h1.13c1.13,0,2.25-1.069,2.25-2.13v-5.34
		C399,146.27,397.88,145.2,396.75,145.2z"/>
</g>
<g>
	<g>
		<polygon fill="#1761A4" points="408.029,13.15 411.971,13.15 411.971,7.58 414.109,7.58 410,2 405.891,7.58 408.029,7.58 		"/>
	</g>
	<g>
		<polygon fill="#1761A4" points="416.141,11.22 416.141,15.28 403.859,15.28 403.859,11.22 401,11.22 401,18 419,18 419,11.22 		
			"/>
	</g>
</g>
<g>
	<g>
		<polygon fill="#1761A4" points="431.971,6.85 428.029,6.85 428.029,12.42 425.891,12.42 430,18 434.109,12.42 431.971,12.42 		"/>
	</g>
	<g>
		<polygon fill="#1761A4" points="423.859,8.78 423.859,4.72 436.141,4.72 436.141,8.78 439,8.78 439,2 421,2 421,8.78 		"/>
	</g>
</g>
<g>
	<g>
		<polygon fill="#0E4980" points="408.029,33.15 411.971,33.15 411.971,27.58 414.109,27.58 410,22 405.891,27.58 408.029,27.58 		
			"/>
	</g>
	<g>
		<polygon fill="#0E4980" points="416.141,31.22 416.141,35.28 403.859,35.28 403.859,31.22 401,31.22 401,38 419,38 419,31.22 		
			"/>
	</g>
</g>
<g>
	<g>
		<polygon fill="#999999" points="408.029,53.15 411.971,53.15 411.971,47.58 414.109,47.58 410,42 405.891,47.58 408.029,47.58 		
			"/>
	</g>
	<g>
		<polygon fill="#999999" points="416.141,51.22 416.141,55.28 403.859,55.28 403.859,51.22 401,51.22 401,58 419,58 419,51.22 		
			"/>
	</g>
</g>
<g>
	<g>
		<polygon fill="#666566" points="408.029,73.15 411.971,73.15 411.971,67.58 414.109,67.58 410,62 405.891,67.58 408.029,67.58 		
			"/>
	</g>
	<g>
		<polygon fill="#666566" points="416.141,71.22 416.141,75.28 403.859,75.28 403.859,71.22 401,71.22 401,78 419,78 419,71.22 		
			"/>
	</g>
</g>
<g>
	<g>
		<polygon fill="#369C89" points="408.029,93.15 411.971,93.15 411.971,87.58 414.109,87.58 410,82 405.891,87.58 408.029,87.58 		
			"/>
	</g>
	<g>
		<polygon fill="#369C89" points="416.141,91.221 416.141,95.279 403.859,95.279 403.859,91.221 401,91.221 401,98 419,98 
			419,91.221 		"/>
	</g>
</g>
<g>
	<g>
		<polygon fill="#C75043" points="408.029,133.15 411.971,133.15 411.971,127.58 414.109,127.58 410,122 405.891,127.58 
			408.029,127.58 		"/>
	</g>
	<g>
		<polygon fill="#C75043" points="416.141,131.221 416.141,135.279 403.859,135.279 403.859,131.221 401,131.221 401,138 419,138 
			419,131.221 		"/>
	</g>
</g>
<g>
	<g>
		<polygon fill="#1B826B" points="408.029,113.15 411.971,113.15 411.971,107.58 414.109,107.58 410,102 405.891,107.58 
			408.029,107.58 		"/>
	</g>
	<g>
		<polygon fill="#1B826B" points="416.141,111.221 416.141,115.279 403.859,115.279 403.859,111.221 401,111.221 401,118 419,118 
			419,111.221 		"/>
	</g>
</g>
<g>
	<g>
		<polygon fill="#A13A2D" points="408.029,153.15 411.971,153.15 411.971,147.58 414.109,147.58 410,142 405.891,147.58 
			408.029,147.58 		"/>
	</g>
	<g>
		<polygon fill="#A13A2D" points="416.141,151.221 416.141,155.279 403.859,155.279 403.859,151.221 401,151.221 401,158 419,158 
			419,151.221 		"/>
	</g>
</g>
<g>
	<g>
		<polygon fill="#0E4980" points="431.971,26.85 428.029,26.85 428.029,32.42 425.891,32.42 430,38 434.109,32.42 431.971,32.42 		
			"/>
	</g>
	<g>
		<polygon fill="#0E4980" points="423.859,28.78 423.859,24.72 436.141,24.72 436.141,28.78 439,28.78 439,22 421,22 421,28.78 		
			"/>
	</g>
</g>
<g>
	<g>
		<polygon fill="#999999" points="431.971,46.85 428.029,46.85 428.029,52.42 425.891,52.42 430,58 434.109,52.42 431.971,52.42 		
			"/>
	</g>
	<g>
		<polygon fill="#999999" points="423.859,48.78 423.859,44.72 436.141,44.72 436.141,48.78 439,48.78 439,42 421,42 421,48.78 		
			"/>
	</g>
</g>
<g>
	<g>
		<polygon fill="#666566" points="431.971,66.85 428.029,66.85 428.029,72.42 425.891,72.42 430,78 434.109,72.42 431.971,72.42 		
			"/>
	</g>
	<g>
		<polygon fill="#666566" points="423.859,68.78 423.859,64.72 436.141,64.72 436.141,68.78 439,68.78 439,62 421,62 421,68.78 		
			"/>
	</g>
</g>
<g>
	<g>
		<polygon fill="#369C89" points="431.971,86.85 428.029,86.85 428.029,92.42 425.891,92.42 430,98 434.109,92.42 431.971,92.42 		
			"/>
	</g>
	<g>
		<polygon fill="#369C89" points="423.859,88.779 423.859,84.721 436.141,84.721 436.141,88.779 439,88.779 439,82 421,82 
			421,88.779 		"/>
	</g>
</g>
<g>
	<g>
		<polygon fill="#C75043" points="431.971,126.85 428.029,126.85 428.029,132.42 425.891,132.42 430,138 434.109,132.42 
			431.971,132.42 		"/>
	</g>
	<g>
		<polygon fill="#C75043" points="423.859,128.779 423.859,124.721 436.141,124.721 436.141,128.779 439,128.779 439,122 421,122 
			421,128.779 		"/>
	</g>
</g>
<g>
	<g>
		<polygon fill="#1B826B" points="431.971,106.85 428.029,106.85 428.029,112.42 425.891,112.42 430,118 434.109,112.42 
			431.971,112.42 		"/>
	</g>
	<g>
		<polygon fill="#1B826B" points="423.859,108.779 423.859,104.721 436.141,104.721 436.141,108.779 439,108.779 439,102 421,102 
			421,108.779 		"/>
	</g>
</g>
<g>
	<g>
		<polygon fill="#A13A2D" points="431.971,146.85 428.029,146.85 428.029,152.42 425.891,152.42 430,158 434.109,152.42 
			431.971,152.42 		"/>
	</g>
	<g>
		<polygon fill="#A13A2D" points="423.859,148.779 423.859,144.721 436.141,144.721 436.141,148.779 439,148.779 439,142 421,142 
			421,148.779 		"/>
	</g>
</g>
<g>
	<path fill-rule="evenodd" clip-rule="evenodd" fill="#1761A4" d="M454.5,9.48v7.27h-11.25V5.5h7.27l2.25-2.25H441V19h15.75V7.23
		L454.5,9.48z M446.57,11.04l-0.791,3.18l3.181-0.79l7.96-7.96l-2.391-2.38L446.57,11.04z M458.51,1.49c0.66,0.66,0.65,1.73,0,2.39
		l-0.8,0.8l-2.39-2.39l0.8-0.8C456.779,0.84,457.85,0.84,458.51,1.49z"/>
</g>
<g>
	<path fill-rule="evenodd" clip-rule="evenodd" fill="#0E4980" d="M454.5,29.48v7.27h-11.25V25.5h7.27l2.25-2.25H441V39h15.75V27.23
		L454.5,29.48z M446.57,31.04l-0.791,3.18l3.181-0.79l7.96-7.96l-2.391-2.38L446.57,31.04z M458.51,21.49
		c0.66,0.66,0.65,1.73,0,2.39l-0.8,0.8l-2.39-2.39l0.8-0.8C456.779,20.84,457.85,20.84,458.51,21.49z"/>
</g>
<g>
	<path fill-rule="evenodd" clip-rule="evenodd" fill="#999999" d="M454.5,49.48v7.27h-11.25V45.5h7.27l2.25-2.25H441V59h15.75V47.23
		L454.5,49.48z M446.57,51.04l-0.791,3.18l3.181-0.79l7.96-7.96l-2.391-2.38L446.57,51.04z M458.51,41.49
		c0.66,0.66,0.65,1.73,0,2.39l-0.8,0.8l-2.39-2.39l0.8-0.8C456.779,40.84,457.85,40.84,458.51,41.49z"/>
</g>
<g>
	<path fill-rule="evenodd" clip-rule="evenodd" fill="#666566" d="M454.5,69.48v7.27h-11.25V65.5h7.27l2.25-2.25H441V79h15.75V67.23
		L454.5,69.48z M446.57,71.04l-0.791,3.18l3.181-0.79l7.96-7.96l-2.391-2.38L446.57,71.04z M458.51,61.49
		c0.66,0.66,0.65,1.73,0,2.39l-0.8,0.8l-2.39-2.39l0.8-0.8C456.779,60.84,457.85,60.84,458.51,61.49z"/>
</g>
<g>
	<path fill-rule="evenodd" clip-rule="evenodd" fill="#369C89" d="M454.5,89.48v7.27h-11.25V85.5h7.27l2.25-2.25H441V99h15.75V87.23
		L454.5,89.48z M446.57,91.04l-0.791,3.181l3.181-0.791l7.96-7.959l-2.391-2.381L446.57,91.04z M458.51,81.49
		c0.66,0.66,0.65,1.73,0,2.39l-0.8,0.8l-2.39-2.39l0.8-0.8C456.779,80.84,457.85,80.84,458.51,81.49z"/>
</g>
<g>
	<path fill-rule="evenodd" clip-rule="evenodd" fill="#C75043" d="M454.5,129.48v7.27h-11.25V125.5h7.27l2.25-2.25H441V139h15.75
		v-11.77L454.5,129.48z M446.57,131.04l-0.791,3.181l3.181-0.791l7.96-7.959l-2.391-2.381L446.57,131.04z M458.51,121.49
		c0.66,0.66,0.65,1.73,0,2.39l-0.8,0.8l-2.39-2.39l0.8-0.8C456.779,120.84,457.85,120.84,458.51,121.49z"/>
</g>
<g>
	<path fill-rule="evenodd" clip-rule="evenodd" fill="#1B826B" d="M454.5,109.48v7.27h-11.25V105.5h7.27l2.25-2.25H441V119h15.75
		v-11.77L454.5,109.48z M446.57,111.04l-0.791,3.181l3.181-0.791l7.96-7.959l-2.391-2.381L446.57,111.04z M458.51,101.49
		c0.66,0.66,0.65,1.73,0,2.39l-0.8,0.8l-2.39-2.39l0.8-0.8C456.779,100.84,457.85,100.84,458.51,101.49z"/>
</g>
<g>
	<path fill-rule="evenodd" clip-rule="evenodd" fill="#A13A2D" d="M454.5,149.48v7.27h-11.25V145.5h7.27l2.25-2.25H441V159h15.75
		v-11.77L454.5,149.48z M446.57,151.04l-0.791,3.181l3.181-0.791l7.96-7.959l-2.391-2.381L446.57,151.04z M458.51,141.49
		c0.66,0.66,0.65,1.73,0,2.39l-0.8,0.8l-2.39-2.39l0.8-0.8C456.779,140.84,457.85,140.84,458.51,141.49z"/>
</g>
</svg>
